<?xml version="1.0" encoding="UTF-8"?>
<svg width="121px" height="47px" viewBox="0 0 121 47" version="1.1" xmlns="http://www.w3.org/2000/svg" xmlns:xlink="http://www.w3.org/1999/xlink">
    <title>forbes-2@1.5x</title>
    <g id="Page-1" stroke="none" stroke-width="1" fill="none" fill-rule="evenodd">
        <g id="Home" transform="translate(-250.000000, -627.000000)" fill-rule="nonzero">
            <g id="Group-11" transform="translate(0.000000, 580.000000)">
                <g id="forbes-2" transform="translate(250.000000, 47.000000)">
                    <polygon id="Path" fill="#4D4D4D" points="0 0 121 0 121 47 0 47"></polygon>
                    <path d="M70.4916316,16.8249007 C68.9732211,16.8249007 67.7805422,17.1554967 66.587237,17.8154172 C66.587237,14.2926623 66.587237,11.1005033 66.6962318,10 L59.4280317,11.3204768 L59.4280317,11.9810331 L60.187237,12.0910199 C61.1625526,12.3109934 61.489537,12.8609272 61.7043946,14.1826755 C61.9230107,16.8249007 61.8133894,30.9165563 61.7043946,33.2288212 C63.6569052,33.669404 65.7184105,34 67.7799158,34 C73.529079,34 77,30.3666225 77,24.6415894 C77,20.1283179 74.1799158,16.8249007 70.4916316,16.8249007 L70.4916316,16.8249007 Z M67.9966526,32.7882384 C67.5625526,32.7882384 67.0194578,32.7882384 66.694979,32.6788874 C66.5859841,31.1378013 66.4782421,24.6415894 66.5859841,18.9171921 C67.236821,18.6965828 67.6702946,18.586596 68.2133894,18.586596 C70.6012528,18.586596 71.9029265,21.4487947 71.9029265,24.9709139 C71.9023001,29.376106 70.2748948,32.7882384 67.9966526,32.7882384 L67.9966526,32.7882384 Z M32.0916316,10.439947 L13,10.439947 L13,11.4304636 L14.0849369,11.5404503 C15.4943525,11.7604238 16.0374474,12.6409536 16.2535578,14.7326093 C16.5799158,18.695947 16.470921,25.8527152 16.2535578,29.2642119 C16.036821,31.3565033 15.494979,32.3476556 14.0849369,32.4563709 L13,32.6776159 L13,33.5581457 L25.2575316,33.5581457 L25.2575316,32.6776159 L23.9558579,32.4563709 C22.5458158,32.3470199 22.0033474,31.3565033 21.7866106,29.2642119 C21.6776157,27.8324768 21.5692473,25.5202119 21.5692473,22.658649 L24.1725947,22.7686358 C25.8,22.7686358 26.5585788,24.0897483 26.8843105,25.9607947 L27.8608789,25.9607947 L27.8608789,18.146649 L26.8843105,18.146649 C26.5579524,20.0183311 25.8,21.3388079 24.1725947,21.3388079 L21.5698737,21.4494305 C21.5698737,17.7060662 21.6782421,14.1833113 21.787237,12.0916556 L25.5832632,12.0916556 C28.5129686,12.0916556 30.0313791,13.962702 31.1156895,17.2661192 L32.2006264,16.9355232 L32.0916316,10.439947 L32.0916316,10.439947 Z" id="Shape" fill="#FFFFFF"></path>
                    <path d="M38.5087588,16.0589597 C43.9635113,16.0589597 46.6905725,19.9196733 46.6905725,25.0288242 C46.6905725,29.9111057 43.6359363,34 38.1811838,34 C32.7270613,34 30,30.1386307 30,25.0288242 C30,20.1465427 33.0540063,16.0589597 38.5087588,16.0589597 Z M38.1811838,17.194618 C35.7810675,17.194618 35.1265476,20.6009372 35.1265476,25.0288242 C35.1265476,29.3432765 36.2176241,32.8630303 38.3997771,32.8630303 C40.9069852,32.8630303 41.562765,29.4567112 41.562765,25.0288242 C41.562765,20.7143718 40.4729484,17.194618 38.1811838,17.194618 Z M78.8703995,25.1429146 C78.8703995,20.4875025 81.7064425,16.0589597 87.2701766,16.0589597 C91.8505561,16.0589597 94.033339,19.5793693 94.033339,24.2341257 L83.8879655,24.2341257 C83.7783539,28.4351433 85.7419136,31.5011584 89.669663,31.5011584 C91.4152594,31.5011584 92.2877426,31.0480753 93.379449,30.2527211 L93.8147457,30.8198946 C92.7236692,32.4092916 90.3241829,34 87.2701766,34 C82.3609624,33.9993443 78.8703995,30.3661558 78.8703995,25.1429146 L78.8703995,25.1429146 Z M83.8879655,22.9856884 L89.0151431,22.871598 C89.0151431,20.6009372 88.6875681,17.194618 86.83362,17.194618 C84.9796719,17.194618 83.9963172,20.3734121 83.8879655,22.9856884 L83.8879655,22.9856884 Z M107.016645,16.9677486 C105.707605,16.3992638 103.962639,16.0589597 101.999079,16.0589597 C97.9636082,16.0589597 95.4532503,18.55649 95.4532503,21.5090704 C95.4532503,24.4616507 97.3059385,25.710088 99.9271679,26.6188769 C102.653599,27.6397891 103.417731,28.4351433 103.417731,29.797671 C103.417731,31.1601986 102.435636,32.4086359 100.690039,32.4086359 C98.6181281,32.4086359 97.089865,31.1601986 95.8904368,27.7532238 L95.1263053,27.9814046 L95.2359169,32.9771207 C96.5449568,33.5442942 98.9444431,33.9993443 101.017614,33.9993443 C105.272309,33.9993443 108,31.7273721 108,28.2082739 C108,25.8235227 106.799312,24.4616507 103.963269,23.3253368 C100.908003,22.0768995 99.8181862,21.282201 99.8181862,19.8055829 C99.8181862,18.3296206 100.801541,17.307397 102.110581,17.307397 C104.072881,17.307397 105.38192,18.55649 106.365275,21.622505 L107.128147,21.3956357 L107.016645,16.9677486 L107.016645,16.9677486 Z M60.8714171,16.5133542 C59.017469,15.3790073 55.7442396,15.9455251 53.9992731,20.0337637 L54.1076248,16.0596154 L46.7995542,17.5355778 L46.7995542,18.2168416 L47.5630558,18.3302763 C48.5457805,18.4443667 48.9810772,19.0115401 49.0906888,20.4881582 C49.3086521,23.2132135 49.1996705,27.9827159 49.0906888,30.3668115 C48.9810772,31.7280278 48.5457805,32.4092916 47.5630558,32.523382 L46.7995542,32.6374723 L46.7995542,33.5456056 L56.9442977,33.5456056 L56.9442977,32.6374723 L55.6352579,32.523382 C54.5448114,32.4092916 54.2172364,31.7280278 54.1076248,30.3668115 C53.8896615,28.2089296 53.8896615,23.8944773 53.9992731,21.169422 C54.5441814,20.3740678 56.9442977,19.6934596 59.1258208,21.169422 L60.8714171,16.5133542 Z" id="Shape" fill="#FFFFFF"></path>
                </g>
            </g>
        </g>
    </g>
</svg>