<?xml version="1.0" encoding="UTF-8"?>
<svg width="206px" height="29px" viewBox="0 0 206 29" version="1.1" xmlns="http://www.w3.org/2000/svg" xmlns:xlink="http://www.w3.org/1999/xlink">
    <title>new-york-times (1)@1.5x</title>
    <g id="Page-1" stroke="none" stroke-width="1" fill="none" fill-rule="evenodd">
        <g id="Home" transform="translate(-488.000000, -636.000000)" fill="#4D4D4D" fill-rule="nonzero">
            <g id="Group-11" transform="translate(0.000000, 580.000000)">
                <g id="new-york-times-(1)" transform="translate(488.000000, 56.000000)">
                    <path d="M12.080451,0.00171887585 C11.8855419,0.011075106 11.696177,0.0605646391 11.5135883,0.177148191 C12.2652574,0.327340306 13.1460446,0.428289105 13.6205041,1.1127712 C13.8582883,1.3651432 13.7842425,1.75293432 13.5464583,1.97452924 C13.0968861,2.51005031 12.3248883,2.67809313 11.6646367,2.5069726 C9.42589239,1.97883803 7.30862745,0.952114885 5.00840421,0.684969893 C3.77636177,0.522466948 2.57204028,1.11461783 1.72193099,1.97145154 C0.937119954,2.75811352 0.651778924,3.95226394 0.807139476,5.03069258 C0.980734257,5.88383303 1.61351126,6.77021273 2.52891879,6.89578319 C1.98682012,6.30732556 1.88394457,5.28552674 2.44575593,4.67367853 C2.76362288,4.279732 3.32851434,4.22556435 3.79792251,4.29819824 C5.58068793,4.62935955 7.31786777,5.16549615 9.09570502,5.52620345 C10.0911953,5.79704169 11.0749812,6.12020095 12.0926483,6.30486339 C12.1111289,7.51994223 12.1111289,8.73378998 12.0926483,9.94886881 C11.4359696,10.4388398 10.80886,10.9663588 10.1645018,11.4723339 C10.7916114,11.9413765 11.4384337,12.3808731 12.0866113,12.8203697 C12.1285007,14.5389615 12.080451,16.2570608 12.1112521,17.9755294 C11.0504636,18.7941995 9.6291794,18.9271565 8.33812212,18.7757333 C6.96673568,18.6995293 5.74947774,17.8831982 4.8513188,16.8921764 C6.35699787,16.0895104 7.89150673,15.3323944 9.43155979,14.5963299 C9.48564645,11.8865933 9.44129292,9.17574874 9.45607743,6.46490417 C7.53162714,7.27126348 5.62688952,8.12071069 3.70859943,8.93938082 C4.26301853,7.52240439 5.39083019,6.37441958 6.73634374,5.69239964 C6.38508844,5.71332805 6.01670775,5.68747531 5.68910766,5.84012959 C3.17081291,6.8336135 1.09543741,8.96892681 0.314445703,11.5738983 C-0.207940293,13.2284737 -0.0397664997,15.0374269 0.526973025,16.655193 C1.22923722,18.4550362 2.52842598,20.0481806 4.25082131,20.9578278 C5.21809783,21.4576474 6.2591737,21.9259514 7.3680119,21.9396164 C9.66330697,22.1304342 12.077987,21.2651061 13.6267875,19.5390047 C14.3030556,18.8138969 14.6438386,17.8685483 14.9789541,16.9537306 C15.289552,16.052701 15.4298816,15.0935643 15.3978485,14.1407061 C14.6549269,15.6130813 13.6668289,16.9960798 12.3177424,17.9724517 C12.3262435,16.2600154 12.3146623,14.5481946 12.3206993,12.8357582 C12.9072747,12.3888751 13.4960678,11.9426076 14.0640394,11.4723339 C13.4812833,10.9565102 12.9022234,10.441302 12.3206993,9.92424715 C12.3232866,8.72024807 12.3182352,7.51378681 12.3206993,6.31101881 C13.6328245,6.24207816 15.1426925,5.55020956 15.4962887,4.17508995 C15.7426972,3.27763051 15.8714456,2.21459041 15.3207227,1.40207569 C14.8143532,0.825928886 14.1576746,0.325493682 13.386416,0.186381313 C12.9593901,0.149079501 12.5090786,-0.0187171005 12.080451,0.00171887585 L12.080451,0.00171887585 Z M5.94167636,8.25920751 C5.93674819,10.8691033 5.95707689,13.4789991 5.93243604,16.0890179 C5.49629302,16.2601385 5.06741904,16.4472631 4.63879148,16.6367267 C3.84782023,15.4931738 3.35623529,14.1468615 3.12953948,12.7803595 C3.06793736,11.6268348 3.28231275,10.4585371 3.68395858,9.37641526 C4.44289673,9.01570796 5.1852023,8.62607022 5.94167636,8.25920751 L5.94167636,8.25920751 Z M156.429624,0.00171887585 C156.218205,-0.0046827553 156.011592,0.0368047389 155.816683,0.177148191 C156.260218,0.279328073 156.728887,0.323031516 157.144085,0.531084528 C157.513698,0.708360468 157.758258,1.07522318 157.886268,1.45439671 C157.955385,1.86434732 157.654767,2.24228978 157.295011,2.39617514 C156.64942,2.69409721 155.916848,2.55621592 155.25906,2.3777089 C153.681923,1.8951244 152.146182,1.27096536 150.537258,0.894253988 C149.710557,0.718209131 148.843815,0.552012938 148.008614,0.771145696 C147.102939,1.02597986 146.183836,1.45932104 145.649253,2.26691144 C144.959186,3.15698438 144.87245,4.38129634 145.208797,5.42771681 C145.486007,6.12574083 146.047818,6.81206955 146.841254,6.9019386 C146.582401,6.56954622 146.137141,6.23407612 146.265274,5.7601092 C146.336732,5.28983553 146.531888,4.8127909 146.909016,4.50748234 C147.286144,4.22310218 147.802247,4.22679543 148.239622,4.35359697 C149.843864,4.65151904 151.409667,5.10147984 152.995429,5.47696013 C154.06977,5.70471047 155.101605,6.10542796 156.183339,6.30486339 C156.201819,7.51501789 156.187651,8.7251724 156.192456,9.93655798 C155.611055,10.4499196 155.029531,10.9626656 154.455276,11.4846447 C155.034336,11.9315278 155.602923,12.3894907 156.189376,12.8265251 C156.197877,14.5489332 156.186419,16.2735573 156.198616,17.9970734 C155.180949,18.7589906 153.841719,18.9468538 152.607212,18.7756102 C151.243464,18.6943587 150.050724,17.8745806 149.145173,16.9044873 C149.516018,16.6458368 149.93984,16.4797637 150.340254,16.2704796 C151.466341,15.7164923 152.578259,15.1366522 153.71297,14.6023622 C153.7487,11.8902866 153.717282,9.17697983 153.728371,6.46490417 C151.816118,7.27864997 149.918896,8.13055935 147.999373,8.92707 C148.437981,7.88680493 149.139013,6.93517784 150.081402,6.29870798 C150.363663,6.04141165 150.649374,5.77180449 151.036235,5.68316652 C150.649374,5.71025034 150.24896,5.69732397 149.896596,5.87706208 C147.192386,6.9702637 144.885879,9.35487131 144.377045,12.2848486 C144.183738,13.7719968 144.322343,15.3163903 144.842142,16.7259802 C145.508553,18.3805557 146.682197,19.8504687 148.208697,20.7885539 C148.939299,21.2329748 149.72411,21.5906044 150.543295,21.8379289 C152.504706,22.1641659 154.608542,21.8822479 156.324777,20.8407518 C157.456901,20.0516276 158.508572,19.0285977 158.982785,17.7014903 C159.491742,16.5750495 159.696261,15.3445821 159.722011,14.1159614 C159.485459,14.4249632 159.346854,14.7924414 159.146031,15.1223716 C158.494281,16.2155733 157.650948,17.2059795 156.623424,17.9630955 C156.635745,16.2457348 156.608024,14.5283741 156.638825,12.8110135 C157.220349,12.3912142 157.76602,11.9234027 158.351241,11.5060656 C157.811729,10.9471539 157.199281,10.4645694 156.626381,9.94259029 C156.615293,8.7385912 156.639934,7.53336103 156.614061,6.32936194 C157.741379,6.25672805 158.881635,5.75136851 159.4878,4.76280893 C160.118605,3.74716553 160.114909,2.36342834 159.506157,1.34039844 C159.026893,0.707621818 158.273622,0.300133374 157.494971,0.183180497 C157.145687,0.15486559 156.781865,0.0125524055 156.429624,0.00171887585 L156.429624,0.00171887585 Z M150.241691,8.25612981 C150.256352,10.8611013 150.241691,13.4654572 150.247728,16.0704286 C149.803084,16.2563221 149.363737,16.4526798 148.920202,16.6398044 C148.277076,15.7361896 147.776251,14.7199306 147.518754,13.6390398 C147.234152,12.2232945 147.30943,10.6887496 147.968449,9.38257067 C148.732316,9.01817013 149.485093,8.63653443 150.241691,8.25612981 Z M58.6133389,0.86963233 C59.3476362,2.15488289 58.8880844,3.89686521 57.7829423,4.82263956 C57.1040869,5.26459833 56.322972,5.50835275 55.5578737,5.75580041 C55.5751222,11.0125244 55.5604609,16.2704796 55.5628018,21.5272036 C55.6170117,21.7672648 55.3964761,21.9554974 55.1699035,21.859596 C54.7225489,21.8386676 54.6042728,21.3671628 54.4145383,21.0495434 C51.6621554,15.9922548 48.9394648,10.9177311 46.1647821,5.87152221 C46.1118042,9.58323719 46.16355,13.2986454 46.1389092,17.0114684 C47.4498023,17.2590392 48.7261983,17.8905847 49.5836998,18.9320808 C49.9816495,18.6243101 50.2391464,18.0826336 50.749212,17.9582942 C50.6198475,18.1934311 50.431345,18.386588 50.2514668,18.5836844 C49.2596727,19.6805792 48.2703426,20.7823984 47.2797805,21.8817555 C46.8203518,21.3031465 46.2080267,20.7540835 45.4415731,20.6752942 C44.9376678,20.6555969 44.3550349,20.6814496 43.9877631,21.0790894 C43.5651725,21.4558008 43.2819259,22.0910396 43.5836531,22.6290228 C43.9372493,23.4009118 44.826784,23.6101959 45.5758658,23.7948583 C44.6395135,23.9795208 43.5911686,23.8711855 42.8359266,23.2445643 C42.2346899,22.7312027 41.6887719,22.0798367 41.5324257,21.2846803 C41.3217464,20.1890165 41.6494697,18.9713524 42.4687779,18.1945391 C43.364596,17.3093904 44.67783,16.9794602 45.9074084,17.0496319 C45.9406735,15.4318659 45.925889,13.8143461 45.9148006,12.1967031 C45.3172601,12.1019097 44.50288,12.1868544 44.2244384,12.8110135 C44.0630409,13.3169886 44.4426331,13.7429432 44.8182829,14.0199369 C44.3525708,13.9386854 43.835113,13.8500475 43.4987654,13.4893402 C43.1020477,13.0006002 42.7940371,12.4232224 42.6794572,11.8002944 C42.5648772,10.9988594 42.7755565,10.0853959 43.4433235,9.56957217 C44.1418916,9.02912677 45.0720836,8.95526179 45.924657,8.97495912 L45.924657,5.55501079 C45.6154143,5.09089253 45.3184921,4.55906471 44.787605,4.31900354 C44.440169,4.17496684 43.9867774,4.12326136 43.6873911,4.3940996 C43.2734248,4.74495823 43.1735062,5.30263879 43.0097678,5.79137871 C42.8508343,4.59845936 42.9703424,3.24549924 43.8068992,2.30987623 C44.817174,1.00246618 46.9547677,0.954453942 48.0599097,2.16337736 C48.5379422,2.65457945 48.8656655,3.26027224 49.1910479,3.85734745 C51.2362384,7.49642854 53.2407714,11.1589002 55.3069066,14.7856705 C55.319227,11.7781349 55.3253872,8.7682603 55.3044425,5.76060163 C54.9494911,5.62272035 54.5541287,5.6264136 54.193017,5.50084314 C53.5203219,5.3235672 52.9597425,4.89022602 52.4619974,4.42118343 C52.1515227,4.78558397 51.8384607,5.14875343 51.5490539,5.52915805 C51.4812916,5.49222556 51.346999,5.41959167 51.2793599,5.38265918 C52.3389164,4.0481653 53.4747363,2.77399449 54.5775375,1.47397093 C55.1553654,2.08212589 55.9094986,2.57948339 56.769341,2.63488212 C57.6671303,2.53159426 58.5505047,1.81387292 58.6133389,0.86963233 L58.6133389,0.86963233 Z M127.388535,3.78114342 C128.866986,2.81843658 130.34285,1.84711216 131.826352,0.891791822 C131.838673,6.57200838 131.815264,12.253456 131.838673,17.9336726 C132.159127,18.3694759 132.596379,18.7277211 132.984595,19.110711 C133.228417,18.8497214 133.482217,18.5998116 133.733677,18.3474396 C133.792692,18.4064084 133.910968,18.5247155 133.971461,18.5825764 C132.787469,19.6079453 131.640437,20.6728321 130.449052,21.6873675 C129.698738,20.9179407 128.922428,20.1755977 128.178398,19.4023545 C127.844391,19.6990455 127.538968,20.0241745 127.224797,20.3405628 C127.160608,20.2913195 127.032475,20.1914786 126.968532,20.1423584 C127.536381,19.5994509 128.145133,19.1020934 128.719264,18.5641101 C128.714336,14.2590132 128.722961,9.95391625 128.714336,5.65005039 C128.700537,4.84479906 128.290267,3.88086113 127.388535,3.78114342 Z M16.9937131,3.94857069 C18.266413,3.00063685 19.5144719,2.01823269 20.7884038,1.07399209 C20.794564,4.20340486 20.7871718,7.33404871 20.7921,10.4646926 C21.8701371,9.57585069 22.9566753,8.69808857 24.0236241,7.79693588 C24.8798936,8.68454666 25.6794891,9.62755617 26.5616315,10.486852 C26.9338315,10.2197071 27.3156415,9.96610397 27.706199,9.72727389 C27.6360957,10.2234003 27.0421281,10.3932897 26.7341175,10.739224 C26.7378136,12.4504293 26.7341175,14.1604035 26.7353495,15.8716087 C26.7599904,17.150827 26.575184,18.4211814 26.5371139,19.6990455 C26.4790847,21.0852448 25.9408053,22.5023444 24.8590721,23.4119915 C23.9792706,24.1975456 22.7769203,24.4805715 21.6298888,24.5753649 C21.6101761,24.6024487 21.5682867,24.6578475 21.547342,24.6860393 L21.578143,24.5852136 C21.1826574,24.5852136 20.7884038,24.5704406 20.3941503,24.5408946 C20.8895545,24.2848293 21.4500106,24.1210953 21.8405681,23.6976028 C22.2890315,23.19766 22.8114175,22.721354 23.0319531,22.067649 C23.3929416,21.0704718 23.4040299,19.9957365 23.4397592,18.949316 C23.4299028,16.604103 23.4508476,14.257659 23.4286708,11.9136771 C22.9062848,11.2328883 22.2804072,10.6321198 21.7259881,9.97472155 C21.4229057,10.2984964 21.0595764,10.5705657 20.7994922,10.9300419 C20.7785475,13.3503509 20.7970281,15.771891 20.7908679,18.1920769 C21.1051619,18.5048951 21.4179775,18.8200523 21.7346124,19.1302852 C21.9885364,18.875451 22.2422139,18.6193858 22.4960147,18.3633205 C22.5528118,18.4187193 22.6648045,18.5295167 22.7214784,18.5849154 C21.489436,19.5476223 20.2698372,20.5252252 19.0377947,21.4865779 C18.2579119,20.7947093 17.4965096,20.0831434 16.7289472,19.3777328 C16.4714503,19.5697818 16.2139534,19.7642929 15.9552245,19.9549876 C15.8999058,19.8971267 15.7913629,19.7814049 15.7360442,19.723544 C16.3274246,19.3431394 16.9077165,18.9456227 17.4929367,18.5577085 C17.4917047,14.2538427 17.4917047,9.95120787 17.4929367,5.64734201 C17.4804931,5.31864287 17.4966328,4.96409099 17.3229148,4.67109326 C17.2082117,4.44703617 16.949606,4.37563336 16.7560521,4.24021424 C16.7128074,4.09753173 16.9173265,4.03720866 16.9937131,3.94857069 L16.9937131,3.94857069 Z M101.850144,1.66368081 C100.692024,2.60053491 99.5597767,3.56631945 98.4127452,4.51671546 C98.4004248,3.6204871 98.4281457,2.72610536 98.3973447,1.829877 C98.2200538,1.82125942 98.1418191,1.90127981 98.1663367,2.06993817 C98.1601765,8.40509084 98.168308,14.739628 98.1633798,21.0747806 C97.5375023,20.9552425 96.9103927,20.8304107 96.2906753,20.6900672 C96.280819,15.3471674 96.2900593,10.0053755 96.2875952,4.6613677 C96.2741659,3.98550318 96.0547392,3.30594541 95.6099719,2.79012167 C95.0555528,2.13395448 94.1888109,1.82926146 93.3523773,1.77140056 C92.3604599,1.74308566 91.4512126,2.26383373 90.7588047,2.93477392 C90.1218388,3.53923563 89.7800702,4.47362756 89.9610572,5.34154101 C90.0386759,4.80355778 90.214242,4.19724944 90.709523,3.8980963 C91.2528538,3.66665271 91.9766787,3.85316177 92.3019379,4.3628301 C92.5803795,4.77401179 92.6081004,5.2879889 92.6191888,5.76934232 C92.6216529,7.21340258 92.6178336,8.65746284 92.6191888,10.1027542 C91.665588,10.1175272 90.5395012,10.2714125 89.988655,11.1553301 C89.4342359,11.8471987 89.262982,12.8283717 89.6436831,13.6421176 C89.8937877,14.4472458 90.7315766,14.8622438 91.5101042,14.9901533 C91.0740844,14.7083585 90.6304259,14.212232 90.8879228,13.6605838 C91.2342499,13.1065965 92.0214018,13.025345 92.606622,13.1866169 C92.6300308,15.7496084 92.6189424,18.311615 92.6127822,20.8747297 C91.7380321,21.1799151 90.8866907,21.7100194 90.4197466,22.5336139 C90.0797029,23.1208404 90.0710786,23.8231732 90.0994156,24.4818026 C90.2041392,25.6365584 90.9667735,26.6908578 91.9906008,27.2178844 C92.7643234,27.5798228 93.6353774,27.5909025 94.4731663,27.5625876 C96.8510082,27.4211362 99.109958,26.4780035 101.492728,26.3993373 C102.202385,26.3462777 102.618199,27.1299851 102.43216,27.7442954 C102.290476,28.2995138 101.824764,28.6749941 101.384924,29 C102.221481,28.8227241 103.054342,28.5087979 103.707324,27.9411456 C104.444086,27.3171097 104.782897,26.3105763 104.736203,25.3651046 C104.680761,24.4294816 103.925519,23.7333042 103.140708,23.3307401 C102.107024,22.7250473 100.858965,22.859974 99.7217903,22.9830823 C97.5854287,23.2292988 95.503277,23.90701 93.3459707,23.9648709 C92.6142607,24.0141142 91.9310931,23.4964438 91.7843569,22.7799536 C91.6192632,22.0894392 92.1804585,21.4853468 92.7484301,21.1887789 C93.9778852,20.6089389 95.3930092,20.8236397 96.6755654,21.09337 C98.1626406,21.2486095 99.5579287,21.8547948 101.046236,22.0074491 C101.891417,22.1034735 102.789083,21.9410937 103.4826,21.4289632 C104.197184,20.9882355 104.519364,20.1294321 104.538953,19.3207337 C104.547701,14.2782181 104.529836,9.23619491 104.548317,4.19380241 C105.0091,3.79370046 105.517195,3.4348398 105.918964,2.97195262 C105.357029,3.11106499 105.004788,3.63735293 104.545236,3.95989666 C103.637098,3.20499662 102.748303,2.43064546 101.850144,1.66368081 L101.850144,1.66368081 Z M99.3304936,4.21202244 C99.8479515,4.65521229 100.357401,5.10701972 100.873627,5.55390281 C100.874859,7.14199977 100.869931,8.73009673 100.873627,10.3181937 C100.62845,10.5594859 100.360481,10.8143201 100.001957,10.8598702 C99.4179686,10.9829785 98.8493811,10.6942895 98.4095419,10.3335822 C98.412006,8.47957136 98.4107739,6.62617603 98.4095419,4.77216516 C98.7176757,4.58750273 99.0250703,4.40284029 99.3304936,4.21202244 L99.3304936,4.21202244 Z M98.4095419,10.7736944 C99.1661392,11.1577922 100.139453,11.2741296 100.873627,10.7767721 C100.871163,11.4969556 100.871163,12.2202168 100.873627,12.9404003 C100.575473,12.6498647 100.192431,12.4190367 99.7647886,12.4202678 C99.2622385,12.409188 98.8002226,12.6461715 98.4095419,12.9404003 C98.412006,12.2189857 98.4083099,11.49634 98.4095419,10.7736944 Z M99.7586284,12.6480181 C100.246517,12.6603289 100.621058,13.0241139 100.873627,13.4082118 C100.870054,15.4185702 100.874982,17.4301597 100.873627,19.4405181 C100.913052,20.0572906 100.488121,20.5848096 100.023641,20.9393615 C99.5751773,21.2951445 98.9665483,21.3074553 98.4219855,21.2779093 C98.3911845,18.6520095 98.4206303,16.0219239 98.4095419,13.395901 C98.761906,13.0130342 99.2079054,12.6406316 99.7586284,12.6480181 Z M160.41331,4.94082352 C161.21155,4.24156843 161.963096,3.49060785 162.778831,2.81105008 C163.468775,3.53862008 164.19568,4.23048868 164.896589,4.94697894 C164.055104,5.73364092 163.208691,6.51414749 162.356118,7.28849864 C161.712006,6.50183666 161.049044,5.73364092 160.41331,4.94082352 L160.41331,4.94082352 Z M68.2688555,5.68932193 C68.7678327,5.34708088 69.3986385,5.36800929 69.9753575,5.29414432 C69.5404466,5.63761645 69.0574859,6.03648732 68.9982247,6.6286382 C68.9008933,7.15800385 69.2361321,7.63443294 69.6266895,7.95205233 C70.337578,8.52081263 71.2505215,8.83843203 71.8295814,9.56723311 C72.108023,9.91932282 72.2768128,10.3649748 72.2644924,10.8167823 C72.2607963,13.2050831 72.2669565,15.5921529 72.2607963,17.9792227 C72.896407,18.4925842 73.5347282,18.9997904 74.1691068,19.513152 C74.3539132,19.3937369 74.5387195,19.274445 74.7248812,19.1549068 C74.7162569,16.5487043 74.7383104,13.9412707 74.7136696,11.3362993 C74.3873015,10.9509703 73.935142,10.6752077 73.5617099,10.3317356 C74.4783495,9.4884438 75.3765084,8.62299252 76.3116286,7.80062913 C77.1247766,8.59837086 77.9798141,9.35302468 78.8139068,10.1286069 C78.4972671,10.4633222 78.171474,10.7892721 77.8368972,11.1060868 C77.830737,13.3971321 77.8368972,15.6881774 77.833201,17.9792227 C78.6660617,18.6243101 79.4990456,19.2706286 80.3404074,19.9058674 C80.4588067,19.8368037 80.5783148,19.7692172 80.700287,19.7015076 C80.6878434,16.9033793 80.7015191,14.1062358 80.6927716,11.3079843 C80.3071423,10.9792852 79.9079605,10.6653591 79.5272594,10.3305045 C80.4266504,9.48105731 81.3371298,8.64638309 82.2414489,7.8030913 C83.1420719,8.50727072 84.043927,9.21145015 84.9394987,9.92178499 C85.2500966,9.57954394 85.5679635,9.23976506 85.9226685,8.94061191 C85.9682541,9.0058593 86.0618893,9.13758517 86.1074749,9.20283257 C85.3411445,9.8848525 84.5797423,10.57549 83.8368207,11.2833627 C83.7726313,13.5140849 83.8355886,15.7521937 83.8060196,17.984147 C81.8556964,19.2644732 79.8191303,20.432894 77.8404701,21.6786268 C76.7968069,20.9313595 75.7829592,20.1434664 74.7528485,19.3789639 C73.8288167,20.1213069 72.9035528,20.864881 71.9733608,21.5998375 C71.8403002,21.7475675 71.7035435,21.5321279 71.5938917,21.4705738 C70.7239465,20.7725498 69.8591759,20.0682472 68.9782656,19.3863504 C68.6086529,19.708771 68.2206827,20.0103864 67.8498379,20.3329301 C67.7906999,20.2763003 67.6748879,20.1642717 67.6157498,20.108873 C68.0679094,19.796301 68.5102127,19.4674788 68.9623722,19.1547837 C68.9649595,16.991771 68.9649595,14.8299895 68.9623722,12.6669768 C68.9611402,12.0883678 68.7578532,11.5023723 68.3623676,11.0739555 C67.9274566,10.6024507 67.3422364,10.2712894 66.9960325,9.7185332 C66.6128673,9.07590792 66.5783701,8.27939727 66.7249832,7.56155283 C66.9394817,6.7505154 67.5839632,6.13251178 68.2688555,5.68932193 Z M205.387911,7.23433099 C205.476618,7.46085025 205.504831,7.71383778 205.393948,7.93912596 C205.121789,8.56082283 204.3801,8.79965291 203.749171,8.78857317 C203.088919,8.72948119 202.573802,8.25489872 202.129035,7.80678454 C201.382417,8.30660421 200.632227,8.80273062 199.886841,9.30255028 C199.026875,9.88115925 198.077463,10.308345 197.123863,10.7059848 C197.12029,11.9296812 197.124971,13.1509155 197.120906,14.3746119 C197.81701,14.9544519 198.532826,15.5084392 199.215378,16.1042834 C198.69176,16.6582707 198.175534,17.2201369 197.681485,17.799977 C197.174007,18.4105941 196.694619,19.1160046 196.66505,19.9360289 C196.635481,20.8678356 197.034663,21.8768312 197.860131,22.3703723 C198.224816,22.5845807 198.668351,22.7753986 199.092174,22.6104335 C198.564859,22.4220778 197.916189,22.0404421 197.961775,21.3978168 C198.108265,20.7896618 198.830981,20.3827889 199.430985,20.5576027 C200.053167,20.7348786 200.566928,21.1792996 200.964878,21.6778882 C202.564069,20.5268256 204.248271,19.4982559 205.997772,18.5909478 C205.984342,17.0386753 206.019455,15.4824634 205.982371,13.9312989 C205.20988,13.3896224 204.473119,12.7993182 203.709376,12.247793 C204.517596,11.2247631 205.330621,10.1426413 205.6682,8.86231503 C205.793745,8.32199274 205.836251,7.64058835 205.387911,7.23433099 L205.387911,7.23433099 Z M200.23785,9.5610777 C200.756663,10.3058829 201.443403,11.0303752 202.384807,11.1830294 C203.322268,11.4033933 204.230899,10.8955716 204.845812,10.2197071 C204.004327,11.7745648 202.698978,13.0228828 201.349891,14.1407061 C200.985207,13.7541461 200.592801,13.3940543 200.231936,13.0050321 C200.246474,11.8576629 200.234154,10.708447 200.23785,9.5610777 L200.23785,9.5610777 Z M201.559215,14.2022603 C201.963325,14.5420392 202.36263,14.8878504 202.766617,15.2302145 C202.951423,15.341012 202.860991,15.5724556 202.886741,15.7472693 C202.875653,17.0805321 202.903497,18.4181037 202.871341,19.7513665 C202.569613,19.0692235 202.117454,18.4347233 201.479256,18.030805 C200.553869,17.4264664 199.281785,17.3913806 198.340505,17.978484 C197.90929,18.217191 197.564318,18.5737126 197.237827,18.935651 C197.704771,18.0246496 198.459397,17.3056972 199.169176,16.5841595 C199.97986,15.8038991 200.790421,15.0246237 201.559215,14.2022603 Z M35.190364,7.80370684 C34.1258793,8.41924829 33.0972471,9.09080402 32.0549392,9.73958472 C31.1714415,10.2000097 30.2740218,10.634582 29.384364,11.0814651 C29.3880601,13.574408 29.380791,16.0673509 29.3906474,18.5602938 C29.0111783,18.8546457 28.5681358,19.0662689 28.223164,19.4037087 C28.2896943,19.4429802 28.4215228,19.5231237 28.4880531,19.5637495 C28.7862074,19.3064531 29.0811583,19.0442325 29.4090048,18.8250997 C30.5116828,19.7409023 31.5522659,20.7326627 32.6523566,21.6535127 C32.7064432,21.6253209 32.8156022,21.5680756 32.8710441,21.5396375 C34.7337691,20.0968084 36.6158371,18.6755232 38.4797941,17.2339251 L38.2487861,17.0307964 C37.2114064,17.8383868 36.2023636,18.6885726 35.1748403,19.5083507 C34.325963,18.7450793 33.5048067,17.9516464 32.6583936,17.1846817 C32.3700956,16.9741666 32.5314932,16.5746802 32.5105485,16.2767581 C34.2489604,15.0050494 35.9881115,13.7327253 37.7005273,12.4265463 C36.845613,10.894956 36.0182965,9.34994698 35.190364,7.80370684 L35.190364,7.80370684 Z M32.5045115,9.64109808 C33.3841898,11.0851583 34.2681802,12.5242943 35.1380022,13.9745099 C34.2533957,14.5962068 33.3761815,15.2252902 32.5015546,15.8580668 C32.4928071,13.7861543 32.4884949,11.7130106 32.5045115,9.64109808 L32.5045115,9.64109808 Z M64.0016765,7.80062913 C63.2513627,8.29429338 62.4961207,8.78180221 61.7285582,9.24715155 C60.6062908,9.94886881 59.3896489,10.4770034 58.2141572,11.0814651 C58.2178533,13.5731769 58.2073809,16.0655043 58.2172373,18.5572161 C57.85514,18.8268232 57.4547262,19.0404161 57.1022389,19.3235652 C57.1392001,19.3888126 57.2162028,19.5199229 57.2531641,19.5851703 C57.6437215,19.3229497 58.0293508,19.053958 58.4297646,18.8065104 C59.4388073,19.7704483 60.4626346,20.7197363 61.4790696,21.6750567 C63.3802343,20.2641125 65.2454234,18.8029402 67.1281074,17.3662665 C67.3695878,17.3170232 67.1712289,16.9255388 67.0172236,17.0768389 C65.9970925,17.8671941 65.0072696,18.6981751 64.0017997,19.5082276 C63.2132926,18.72649 62.4303296,17.9411822 61.6455186,17.1568593 C61.3915946,16.9340333 61.542027,16.5622462 61.5284745,16.2704796 C63.2015882,15.029548 64.822956,13.7178292 66.4997658,12.4818219 C65.727152,10.8937249 64.8234489,9.36533551 64.0016765,7.80062913 Z M61.5067906,9.6903414 C62.3692203,11.0937759 63.1595755,12.5439916 63.9554749,13.9868208 C63.1337026,14.5888203 62.3396513,15.2277523 61.525148,15.8396006 C61.4870779,13.7910786 61.5252712,11.7400945 61.5067906,9.6903414 Z M112.599714,7.80678454 C111.77671,8.2856758 110.96467,8.77934005 110.16643,9.29639487 C109.228846,9.86761734 108.204279,10.2732592 107.206448,10.7213733 C107.229857,13.3361934 107.213224,15.9516291 107.215688,18.5665723 C106.881805,18.8988416 106.544841,19.230126 106.220814,19.5697818 C106.2887,19.5660885 106.424101,19.5562399 106.491864,19.5514386 C106.728416,19.2989435 106.974824,19.052727 107.218769,18.8065104 C108.338695,19.7224361 109.441989,20.6581822 110.554523,21.5827254 C110.737975,21.7598783 110.945697,21.4959341 111.124343,21.4317947 C112.913269,20.4543149 114.603508,19.3026368 116.446643,18.4248747 C116.47498,15.9885616 116.455268,13.552864 116.459087,11.1153199 C116.791738,10.7829275 117.128702,10.4517662 117.453961,10.1119873 C117.388663,10.1132184 117.258559,10.1187583 117.192152,10.1212204 C116.881554,10.3760546 116.567507,10.6241178 116.255677,10.8752587 C115.036078,9.85345989 113.821777,8.82365903 112.599714,7.80678454 L112.599714,7.80678454 Z M110.514359,9.61339872 C111.39416,10.4394554 112.289732,11.2532012 113.169534,12.08172 C113.160909,14.6756117 113.163373,17.2682723 113.163373,19.862164 C112.261518,19.0718087 111.405126,18.2335644 110.514482,17.4307752 L110.514359,9.61339872 L110.514359,9.61339872 Z" id="Shape"></path>
                    <path d="M132.488501,13.8641702 C133.762906,11.9009615 135.064532,9.9551373 136.371106,8.01179664 C136.937079,8.49421514 137.635556,8.79297274 138.374273,8.86860498 C139.096848,8.86984673 139.712893,8.43895906 140.257423,8.00807138 C140.120084,9.06728518 139.768695,10.1674768 138.958272,10.9038352 C138.251782,11.5545129 137.180291,11.7109735 136.290682,11.3930852 C135.766073,11.214273 135.281057,10.9336373 134.846645,10.5896722 C134.769934,10.7709679 134.706832,10.9584723 134.661052,11.149702 C136.469965,13.8840382 138.246709,16.6432094 140.023576,19.3998971 C140.431757,19.1341624 140.789332,18.7987653 141.149506,18.4723089 C141.220032,18.5168878 141.359721,18.6064181 141.430371,18.6509969 C140.152254,19.7946498 138.833306,20.8923579 137.52302,22 C135.839073,19.2918648 134.192245,16.5600121 132.488501,13.8641702 L132.488501,13.8641702 Z M193.684196,8 C192.897158,8.48055772 192.107151,8.96049457 191.330258,9.45595331 C190.255056,10.205971 189.0221,10.6728695 187.881322,11.3061626 C187.893695,13.8194671 187.881322,16.3346342 187.887385,18.8466969 C187.493928,19.1074647 187.105544,19.3730753 186.711963,19.6290002 C186.762692,19.6910878 186.865386,19.8183673 186.916115,19.8804548 C187.255132,19.6283793 187.56136,19.3291173 187.927721,19.1105691 C188.948482,20.0629923 190.016136,20.9638828 191.051869,21.901405 C191.150728,22.0603491 191.294996,21.8976797 191.395092,21.8331086 C193.26092,20.3901937 195.131697,18.955971 197,17.5180231 C196.781,17.1330803 196.532429,17.5062265 196.313306,17.6639289 C195.43607,18.3805435 194.56069,19.0962889 193.681103,19.8090541 C192.781472,18.9857731 191.912897,18.1320691 190.996067,17.3285319 C190.982087,17.0700481 190.981096,16.8110213 190.993098,16.5524374 C192.743858,15.2796424 194.474327,13.9770453 196.211354,12.6845065 C195.374824,11.1186582 194.535325,9.55591428 193.684196,8 L193.684196,8 Z M190.983694,9.89677499 C191.930219,11.3011956 192.761799,12.7850883 193.650171,14.2304868 C192.749426,14.8502448 191.873427,15.5057653 190.977632,16.1303661 C190.992355,14.0529163 190.978869,11.9742248 190.983694,9.89677499 L190.983694,9.89677499 Z M121.479126,8.20675158 C122.186977,8.85370397 122.781989,9.61613922 123.439111,10.3152452 C124.154263,9.62731498 124.85333,8.91951678 125.543736,8.20550983 C126.046074,8.52836515 126.569446,8.98160434 127.214072,8.85122046 C127.668157,8.82017668 127.904478,8.37314624 128.290517,8.19060881 C128.291749,9.1405485 128.073987,10.1389165 127.447796,10.8765167 C126.73017,11.7382921 125.372866,11.9903676 124.412856,11.399294 C124.044145,11.21924 123.799038,10.8740332 123.455196,10.6616937 C123.463733,13.2594373 123.460022,15.8559391 123.457671,18.4536827 C123.967433,18.8473178 124.478432,19.2397112 125.003042,19.6147201 C125.384126,19.3638863 125.677239,18.9019549 126.158667,18.8584936 C125.027664,19.9388171 123.842467,20.9669872 122.663333,21.9963989 C121.777436,21.1582168 120.871742,20.3411445 119.995619,19.4931526 C119.654128,19.8009828 119.33862,20.1363798 119.013338,20.4604768 C118.961372,20.399631 118.85744,20.279057 118.805474,20.2183353 C119.234812,19.7390194 119.713642,19.3068899 120.152878,18.8362662 C120.136794,16.6135315 120.161539,14.3907968 120.141743,12.1693039 C119.906658,11.6080324 119.498354,11.1212659 119.202642,10.5848293 C118.797926,10.8244873 118.503576,11.3236713 118,11.3410558 C119.14449,10.2792344 120.340946,9.27465763 121.479126,8.20675158 L121.479126,8.20675158 Z M167.391116,10.9857908 C168.444046,10.0606862 169.474706,9.11198822 170.533823,8.19433407 C171.293517,9.03499965 172.079194,9.85207195 172.825278,10.705155 C173.943785,9.89429149 175.017873,9.02258213 176.125121,8.19433407 C176.901023,9.02879089 177.661831,9.87690698 178.445033,10.705155 C179.542506,9.87069822 180.626493,9.01885688 181.73139,8.19557582 C182.486135,9.03996665 183.264388,9.86324771 184.027917,10.700188 C184.495488,10.400926 184.92495,10.0420599 185.401305,9.75521536 C185.437187,10.0333676 185.18478,10.1600263 185.009085,10.3140034 C184.754081,10.5201341 184.506623,10.7361988 184.251866,10.9410878 C184.230709,13.2532286 184.256815,15.5653693 184.238256,17.8773859 C184.677427,18.3347612 185.12541,18.7835319 185.581949,19.2234443 C185.82322,18.9714929 186.070677,18.7242603 186.305762,18.465976 C186.376287,18.5106791 186.518575,18.5988434 186.5891,18.6435464 C185.434712,19.7847158 184.244566,20.8912403 183.059246,22 C182.224077,21.0103243 181.348078,20.0529341 180.532583,19.0458738 C180.730672,18.8633364 180.923565,18.6733485 181.114108,18.482243 C181.116582,16.4878663 181.114108,14.4936139 181.114108,12.5006031 C180.483091,11.7941709 179.85455,11.0850067 179.203861,10.3972007 C179.01567,10.5896722 178.827602,10.7809019 178.642009,10.9744909 C178.639535,13.4679273 178.651907,15.9613638 178.635823,18.4548003 C178.948856,18.8074576 179.301483,19.1228624 179.619465,19.474278 C178.764501,20.2354715 177.940468,21.0326758 177.090576,21.8013198 C176.296532,20.9632057 175.514894,20.1133409 174.745918,19.2520045 C174.964917,18.9813028 175.40403,18.7851061 175.334866,18.3728447 C175.324968,16.4282623 175.344764,14.4824381 175.324968,12.5392216 C174.795409,11.7991379 174.201512,11.0826474 173.587818,10.4071347 C173.408535,10.5983644 173.22653,10.7858689 173.043412,10.9733733 C173.048484,13.3885794 173.029925,15.8050273 173.052073,18.2202334 C173.311903,18.6646562 173.699173,19.0286135 174.022105,19.429575 C173.191886,20.3051338 172.334446,21.1556092 171.469583,21.9962747 C170.643076,21.0079649 169.786873,20.0456077 168.95418,19.0633825 C169.214134,18.8608529 169.476315,18.6610551 169.737382,18.4586497 C169.729958,16.4183282 169.722535,14.3770134 169.741094,12.3368161 C169.253727,11.7308416 168.719095,11.164603 168.206859,10.5797382 C167.84322,10.8504399 167.522763,11.1906798 167.106911,11.3819095 C167.086743,11.1919215 167.273573,11.1012737 167.391116,10.9857908 L167.391116,10.9857908 Z" id="Shape"></path>
                    <path d="M159,10.9949892 C160.063267,9.97986668 161.163991,9.00378737 162.238133,8 C163.00296,8.90680917 163.745918,9.83376965 164.507242,10.7443572 C164.902343,10.4219361 165.256241,10.0390612 165.693631,9.7733157 C165.661008,9.91815328 165.623673,10.0680287 165.494389,10.1498934 C165.16683,10.4332713 164.84193,10.7179086 164.511954,10.9937297 C164.516908,13.3426173 164.502288,15.6902455 164.519325,18.0391331 C164.949585,18.5454349 165.394104,19.041661 165.795366,19.5755449 C166.130054,19.3628226 166.409162,19.0717621 166.728142,18.8351101 C166.795804,18.8727678 166.932217,18.9472018 167,18.983726 C165.937941,20.0215187 164.836009,21.0164899 163.729244,22 C162.993415,21.0782033 162.238253,20.1712682 161.485629,19.2633255 C161.15807,19.573152 160.885004,19.9484702 160.526272,20.217994 C160.475525,20.1688752 160.374032,20.0681186 160.323164,20.0177404 C160.642265,19.7028761 160.943121,19.3678605 161.266934,19.0555151 C161.292308,16.9219946 161.268143,14.7859553 161.279017,12.6523089 C161.259685,12.355077 161.351633,12.0036884 161.129314,11.7669105 C160.735301,11.2568303 160.372823,10.7203016 159.953678,10.2328916 C159.641585,10.4962441 159.345441,10.7821409 159,10.9949892 L159,10.9949892 Z" id="Path"></path>
                </g>
            </g>
        </g>
    </g>
</svg>