<?xml version="1.0" encoding="UTF-8"?>
<svg width="78px" height="53px" viewBox="0 0 78 53" version="1.1" xmlns="http://www.w3.org/2000/svg" xmlns:xlink="http://www.w3.org/1999/xlink">
    <title>Logo / Techcrungh@1.5x</title>
    <g id="Page-1" stroke="none" stroke-width="1" fill="none" fill-rule="evenodd">
        <g id="Home" transform="translate(-812.000000, -624.000000)" fill="#4D4D4D" fill-rule="nonzero">
            <g id="Group-11" transform="translate(0.000000, 580.000000)">
                <g id="Logo-/-Techcrungh" transform="translate(812.000000, 44.000000)">
                    <g id="techchrunch">
                        <g id="Group">
                            <path d="M38.9940851,0.0120235935 L0.00967888707,0.0120235935 L0.00967888707,12.83719 L12.9148616,12.83719 L12.9148616,39.2890956 L26.0889024,39.2890956 L26.0889024,12.83719 L38.9940851,12.83719 L38.9940851,0.0120235935 Z M51.8992679,0.0120235935 L77.9784914,0.0120235935 L77.9784914,12.83719 L51.8992679,12.83719 L51.8992679,0.0120235935 Z M51.8992679,25.7823251 L51.8992679,12.83719 L38.9940851,12.83719 L38.9940851,39.2890956 L77.9784914,39.2890956 L77.9784914,25.8012956 L51.8992679,25.7823251 Z" id="Shape"></path>
                        </g>
                        <path d="M5.38683837,44.6329149 L5.38683837,52.6486439 L3.23597458,52.6486439 L3.23597458,44.6329149 L0.00967888707,44.6329149 L0.00967888707,43.0297691 L8.07541811,43.0297691 L8.07541811,44.6329149 L5.38683837,44.6329149 Z M14.1166568,49.4423523 L9.64366667,49.4423523 C9.71464518,50.5111162 10.4698672,51.0011444 11.1823409,51.0011444 C11.7238208,51.0011444 12.1792662,50.88171 12.4645245,50.5552027 L13.8604351,51.7551573 C13.2622261,52.5193235 12.1792662,52.9783575 11.1823409,52.9783575 C9.03120821,52.9783575 7.66352769,51.473538 7.66352769,49.1233263 C7.66352769,46.8439201 9.10218671,45.2487901 10.9973666,45.2487901 C12.9920239,45.2487901 14.1454246,46.8489968 14.1454246,48.9728978 C14.1454246,49.2574561 14.1311751,49.4423523 14.1166568,49.4423523 L14.1166568,49.4423523 Z M10.8976203,47.042443 C10.1851466,47.042443 9.74368184,47.3048246 9.67243447,48.3735884 L12.2368018,48.3735884 C12.1798039,47.3048246 11.7808187,47.042443 10.8976203,47.042443 L10.8976203,47.042443 Z M18.8321568,52.9991984 C16.8802479,52.9991984 15.327862,51.41342 15.327862,49.1340139 C15.327862,46.8546078 16.8380372,45.2546683 18.9176536,45.2546683 C20.342332,45.2546683 21.2540294,45.9485632 21.8810062,46.8973583 L20.5848419,48.1996471 C20.1431083,47.5765578 19.6731445,47.137563 18.8754429,47.137563 C17.9349777,47.137563 17.3225193,47.9161575 17.3225193,49.1334795 C17.3225193,50.3232809 17.9349777,51.1163037 18.8754429,51.1163037 C19.6443767,51.1163037 20.1288588,50.776704 20.6421087,50.1677758 L21.8955245,51.3426144 C21.1685326,52.3055707 20.3135642,52.9991984 18.8321568,52.9991984 L18.8321568,52.9991984 Z M27.7020502,52.6486439 L27.7020502,48.8224692 C27.7020502,47.4921254 27.4458286,47.095614 26.6336086,47.095614 C25.8213887,47.095614 25.5511864,47.4923926 25.5511864,48.7807875 L25.5511864,52.6491783 L23.4003226,52.6491783 L23.4003226,43.5002924 L25.5511864,42.5226407 L25.5511864,45.9071486 C25.5511864,45.5531206 26.4128762,45.2560042 27.1963284,45.2560042 C29.1054888,45.2560042 29.852914,46.558293 29.852914,48.6536046 L29.852914,52.6491783 L27.7020502,52.6486439 Z" id="Shape"></path>
                        <path d="M37.7075997,45.8211131 C37.3513629,45.1419137 36.7816529,44.7451351 35.8844738,44.7451351 C34.388548,44.7451351 33.5341174,46.0479583 33.5341174,47.8881024 C33.5341174,49.6718693 34.4030664,51.0310698 35.8987233,51.0310698 C36.7969778,51.0310698 37.3239394,50.6489867 37.8506322,49.7712644 L39.5318011,50.7620085 C38.8483641,52.1636923 37.6508707,52.9989312 35.8422631,52.9989312 C33.2351473,52.9989312 31.4824622,51.0161071 31.4824622,47.8875681 C31.4824622,44.8720508 33.3055881,42.7767393 35.9127039,42.7767393 C37.7936343,42.7767393 38.9333232,43.6827838 39.5594934,44.9706443 L37.7075997,45.8211131 L37.7075997,45.8211131 Z M45.0302155,47.6898467 C44.7167271,47.4063571 44.3994747,47.2083686 43.9580099,47.2083686 C43.189345,47.2083686 42.7580968,47.534876 42.7580968,48.8222021 L42.7580968,52.6483767 L40.607233,52.6483767 L40.607233,45.1670296 L42.7580968,45.1670296 L42.7580968,45.906347 C43.2958127,45.552319 43.5313323,45.2552027 44.2295565,45.2552027 C44.870245,45.2552027 45.3203133,45.5095685 45.5765349,45.778897 L45.0302155,47.6898467 L45.0302155,47.6898467 Z M51.3615519,52.5821133 L51.3615519,52.348054 C50.823836,52.7018149 50.4998621,52.9991984 49.71641,52.9991984 C47.8069807,52.9991984 47.0598243,51.6963753 47.0598243,49.6015981 L47.0598243,45.1672968 L48.6729722,45.1672968 L48.6729722,49.4311303 C48.6729722,50.7620085 49.1980518,51.1585199 50.0105406,51.1585199 C50.8214163,51.1585199 51.3615519,50.7614741 51.3615519,49.4730792 L51.3615519,45.1670296 L53.5124157,45.1670296 L53.5124157,52.6483767 L51.2771305,52.6483767 L51.3615519,52.5821133 Z M59.1584332,52.6486439 L59.1584332,48.8224692 C59.1584332,47.4921254 59.0366405,47.095614 58.2241517,47.095614 C57.4132761,47.095614 57.2764274,47.4923926 57.2764274,48.7807875 L57.2764274,52.6491783 L55.1255636,52.6491783 L55.1255636,45.1678312 L57.2764274,45.1678312 L57.2764274,45.9071486 C57.2764274,45.5531206 58.0036882,45.2560042 58.7871403,45.2560042 C60.6965696,45.2560042 61.309297,46.558293 61.309297,48.6536046 L61.309297,52.6491783 L59.1584332,52.6486439 Z M66.5122365,52.9991984 C64.5603276,52.9991984 63.0082105,51.41342 63.0082105,49.1340139 C63.0082105,46.8546078 64.5183857,45.2546683 66.5980022,45.2546683 C68.0232183,45.2546683 68.9346468,45.9485632 69.5610859,46.8973583 L68.2657282,48.1996471 C67.8234568,47.5765578 67.3540308,47.137563 66.5565981,47.137563 C65.6155951,47.137563 65.0028678,47.9161575 65.0028678,49.1334795 C65.0028678,50.3232809 65.6155951,51.1163037 66.5565981,51.1163037 C67.3247253,51.1163037 67.8100139,50.776704 68.3229949,50.1677758 L69.5764108,51.3426144 C68.8480746,52.3055707 67.9939128,52.9991984 66.5122365,52.9991984 L66.5122365,52.9991984 Z M75.2899116,52.8436933 L75.2899116,48.8224692 C75.2899116,47.4921254 75.03369,47.095614 74.2212012,47.095614 C73.4103255,47.095614 73.1390478,47.4923926 73.1390478,48.7807875 L73.1390478,52.6491783 L70.988184,52.6491783 L70.988184,43.5002924 L73.1390478,42.5226407 L73.1390478,45.9071486 C73.1390478,45.5531206 74.0007376,45.2560042 74.7841898,45.2560042 C76.6936191,45.2560042 77.4407754,46.558293 77.4407754,48.6536046 L77.4407754,52.6491783 L75.3404569,52.6491783 L75.2899116,52.8436933 L75.2899116,52.8436933 Z" id="Shape"></path>
                    </g>
                </g>
            </g>
        </g>
    </g>
</svg>