<svg xmlns="http://www.w3.org/2000/svg" width="59" height="59" viewBox="0 0 59 59">
    <g fill="#FFF">
        <path d="M24.584.25C11.166.25.25 11.166.25 24.582.25 38 11.166 48.915 24.584 48.915c5.713 0 11.128-2 15.465-5.586l.38-.32.176-.151 15.426 15.424c.303.303.707.468 1.126.468.42 0 .824-.164 1.126-.468.586-.586.62-1.514.103-2.14l-.103-.114L42.86 40.603l.151-.176c3.786-4.398 5.906-9.964 5.906-15.845C48.917 11.166 38.001.25 24.584.25zm0 3.187c11.66 0 21.146 9.486 21.146 21.145 0 11.66-9.486 21.145-21.146 21.145S3.438 36.242 3.438 24.582 12.923 3.437 24.584 3.437z"/>
        <path d="M24.5 8.25c-3.997 0-7.25 3.253-7.25 7.25s3.253 7.25 7.25 7.25 7.25-3.253 7.25-7.25-3.253-7.25-7.25-7.25zm0 3.25c2.206 0 4 1.794 4 4s-1.794 4-4 4-4-1.794-4-4 1.794-4 4-4zM19.6 26.25h10.8c3.503 0 6.35 2.847 6.35 6.35v3.6c0 .856-.694 1.55-1.55 1.55-.856 0-1.55-.694-1.55-1.55v-3.6c0-1.792-1.458-3.25-3.25-3.25H19.6c-1.792 0-3.25 1.458-3.25 3.25v3.6c0 .856-.694 1.55-1.55 1.55-.856 0-1.55-.694-1.55-1.55v-3.6c0-3.503 2.847-6.35 6.35-6.35z"/>
    </g>
</svg>
