<svg xmlns="http://www.w3.org/2000/svg" width="22" height="22" viewBox="0 0 22 22">
    <g fill="#FFAB16">
        <path d="M5.5 19.111c0 .215-.224.389-.5.389-.245 0-.45-.138-.492-.319l-.008-.07V13H2c-1.105 0-2-1.058-2-2.364V2.364C0 1.058.895 0 2 0h17c1.105 0 2 1.058 2 2.364v8.272C21 11.942 20.105 13 19 13h-2.5v6.111c0 .215-.224.389-.5.389-.245 0-.45-.138-.492-.319l-.008-.07V13h-10v6.111zM19 1H2c-.513 0-.936.472-.993 1.08L1 2.222v8.556c0 .627.386 1.143.883 1.214L2 12h17c.513 0 .936-.472.993-1.08l.007-.142V2.222c0-.627-.386-1.143-.883-1.214L19 1z" transform="translate(.5 1.5)"/>
        <path d="M17 4.5c.276 0 .5.224.5.5 0 .245-.177.45-.41.492L17 5.5H4c-.276 0-.5-.224-.5-.5 0-.245.177-.45.41-.492L4 4.5h13zM11 7.5c.276 0 .5.224.5.5 0 .245-.177.45-.41.492L11 8.5H4c-.276 0-.5-.224-.5-.5 0-.245.177-.45.41-.492L4 7.5h7z" transform="translate(.5 1.5)"/>
    </g>
</svg>
