<svg xmlns="http://www.w3.org/2000/svg" width="36" height="36" viewBox="0 0 36 36">
    <g fill="#FFF">
        <path d="M35.297 34.594h-1.47c-1.295-1.956-2.722-4.428-4.043-7.01-.177-.345-.6-.482-.946-.305s-.483.6-.306.946c1.176 2.297 2.436 4.512 3.62 6.369H3.845c2.609-4.107 6.247-11.02 8.3-17.474.477-.252 1.096-.209 1.525.13.503.396 1.118.595 1.734.595.616 0 1.23-.199 1.732-.596.492-.388 1.233-.388 1.724 0 1.006.794 2.464.794 3.466 0 .43-.339 1.05-.381 1.528-.128.511 1.604 1.145 3.314 1.9 5.123.15.358.561.528.92.378.358-.15.527-.561.378-.92-1.585-3.797-2.66-7.271-3.108-10.047-.055-.341-.35-.591-.694-.591h-2.008V9.057c.538-.039 1.06-.204 1.523-.486h6.179c1.502 0 2.724-1.222 2.724-2.724 0-1.278-.885-2.353-2.074-2.645C29.297 1.47 27.784.148 25.967.148 24.37.148 23.006 1.173 22.5 2.6c-.402-.197-.841-.314-1.29-.342C20.736.92 19.47 0 17.999 0c-1.47 0-2.735.92-3.209 2.258-.449.028-.887.145-1.29.342-.506-1.427-1.87-2.452-3.47-2.452C8.216.148 6.704 1.47 6.406 3.2c-1.19.293-2.074 1.368-2.074 2.646 0 1.502 1.222 2.724 2.724 2.724h6.177c.464.281.985.447 1.523.485v2.008h-2.008c-.345 0-.639.25-.694.59-1.126 6.963-5.887 16.92-9.882 22.94H.703c-.388 0-.703.315-.703.703 0 .388.315.703.703.703h34.594c.388 0 .703-.315.703-.703 0-.388-.315-.703-.703-.703zm-9.33-33.04c1.255 0 2.275 1.02 2.275 2.272 0 .388.315.703.703.703.727 0 1.318.592 1.318 1.318 0 .727-.591 1.318-1.318 1.318h-4.889c.229-.463.352-.977.352-1.507 0-.754-.25-1.48-.7-2.068.118-1.143 1.086-2.036 2.26-2.036zM11.942 7.165H7.055c-.727 0-1.318-.591-1.318-1.318 0-.726.591-1.318 1.318-1.318.388 0 .703-.314.703-.703 0-1.253 1.02-2.272 2.273-2.272 1.173 0 2.142.893 2.262 2.034-.452.59-.703 1.316-.703 2.07 0 .53.123 1.044.352 1.507zm1.906.13c-.005-.005-.01-.009-.016-.012-.044-.032-.086-.064-.128-.098-.45-.38-.708-.936-.708-1.527 0-.58.24-1.112.673-1.496.43-.38 1.005-.559 1.576-.489.376.046.72-.213.78-.586.156-.974.987-1.68 1.974-1.68.989 0 1.82.706 1.974 1.679.06.374.403.634.78.587.572-.07 1.146.108 1.576.489.434.384.673.915.673 1.496 0 .59-.259 1.148-.71 1.528-.454.382-1.049.544-1.633.444-.204-.035-.413.021-.572.155-.159.133-.25.33-.25.538v2.74h-3.676v-2.74c0-.208-.092-.404-.25-.538-.159-.134-.368-.19-.572-.155-.524.09-1.058-.033-1.49-.336zm-.509 5.175h9.32c.18.971.423 2.003.727 3.088-.68-.046-1.375.15-1.93.588-.491.388-1.232.388-1.723 0-1.003-.794-2.462-.794-3.468 0-.49.388-1.23.388-1.723 0-.555-.439-1.249-.634-1.928-.588.295-1.054.54-2.089.725-3.088z"/>
        <path d="M18 19c-3.86 0-7 3.14-7 7s3.14 7 7 7 7-3.14 7-7-3.14-7-7-7zm0 12.56c-3.066 0-5.56-2.494-5.56-5.56 0-3.066 2.494-5.56 5.56-5.56 3.066 0 5.56 2.494 5.56 5.56 0 3.066-2.494 5.56-5.56 5.56z"/>
        <path d="M19.294 25.282h-1.447l1.1-2.244c.174-.355.032-.786-.317-.963-.35-.176-.774-.032-.949.323l-1.609 3.282c-.23.469.118 1.038.634 1.038h1.447l-1.1 2.244c-.175.355-.033.786.317.963.101.05.209.075.314.075.26 0 .51-.146.634-.398l1.61-3.282c.009-.018.017-.038.024-.057.18-.462-.168-.98-.658-.98z"/>
    </g>
</svg>
