<svg xmlns="http://www.w3.org/2000/svg" width="20" height="18" viewBox="0 0 20 18">
    <g fill="#FFAB16">
        <path d="M14 .5c1.325 0 2.41 1.032 2.495 2.336L16.5 3v3.5H18c.78 0 1.42.595 1.493 1.356L19.5 8v7c0 1.38-1.12 2.5-2.5 2.5H3C1.62 17.5.5 16.38.5 15V8c0-.828.672-1.5 1.5-1.5h1.5V3C3.5 1.675 4.532.59 5.836.505L6 .5h8zm4 7H2c-.276 0-.5.224-.5.5v7c0 .828.672 1.5 1.5 1.5h14c.828 0 1.5-.672 1.5-1.5V8c0-.276-.224-.5-.5-.5zm-4-6H6c-.78 0-1.42.595-1.493 1.356L4.5 3v3.5h11V3c0-.78-.595-1.42-1.356-1.493L14 1.5z"/>
        <path d="M10 8.5c1.38 0 2.5 1.12 2.5 2.5 0 1.21-.859 2.218-2 2.45V15c0 .276-.224.5-.5.5s-.5-.224-.5-.5v-1.55c-1.14-.231-2-1.24-2-2.45 0-1.38 1.12-2.5 2.5-2.5zm0 1c-.828 0-1.5.672-1.5 1.5s.672 1.5 1.5 1.5 1.5-.672 1.5-1.5-.672-1.5-1.5-1.5z"/>
    </g>
</svg>
