<svg xmlns="http://www.w3.org/2000/svg" width="49" height="40" viewBox="0 0 49 40">
    <g fill="#FFF">
        <path d="M13.964 21.3h25.072c.364 0 .664.311.664.7 0 .389-.3.7-.664.7H13.964c-.364 0-.664-.311-.664-.7 0-.389.3-.7.664-.7z"/>
        <path d="M21.965 1.562c-1.717-1.695-4.464-1.748-6.245-.159l-.17.16L5.138 11.838l-.175.072H.957c-.359 0-.654.262-.7.6l-.007.095v3.778c0 1.096.703 2.06 1.724 2.427l.173.056.143.04 3.386 15.04c.255 1.136 1.22 1.944 2.383 2.019l.175.005H9.87l.041.2c.427 2.066 2.281 3.579 4.444 3.579 2.091 0 3.894-1.414 4.397-3.374l.048-.205.04-.2h11.32l.04.2c.427 2.066 2.281 3.579 4.445 3.579 2.09 0 3.893-1.414 4.396-3.374l.048-.205.04-.2h1.637c1.18 0 2.19-.754 2.515-1.856l.043-.167 3.386-15.04.143-.041c1.055-.3 1.814-1.222 1.89-2.301l.007-.182v-3.778c0-.351-.265-.642-.61-.689l-.097-.006h-4.006l-.175-.072L33.45 1.562c-1.713-1.69-4.468-1.743-6.246-.158l-.17.158L24.5 4.064l-2.535-2.502zm-7.61 30.631c1.72 0 3.122 1.382 3.122 3.084 0 1.701-1.401 3.084-3.122 3.084-1.72 0-3.12-1.383-3.12-3.084 0-1.702 1.4-3.084 3.12-3.084zm20.29 0c1.72 0 3.12 1.382 3.12 3.084 0 1.701-1.4 3.084-3.12 3.084-1.72 0-3.122-1.383-3.122-3.084 0-1.702 1.401-3.084 3.122-3.084zM3.752 18.968h41.496l-3.305 14.68c-.112.501-.542.873-1.05.927l-.127.007H39.13l-.041-.2c-.427-2.065-2.281-3.578-4.444-3.578-2.091 0-3.894 1.414-4.397 3.374l-.048.205-.04.2H18.84l-.04-.2c-.427-2.066-2.281-3.58-4.445-3.58-2.09 0-3.893 1.415-4.396 3.375l-.048.205-.04.2H8.233c-.518 0-.979-.334-1.143-.813l-.035-.122-3.304-14.68zM47.336 13.3v3.084c0 .619-.476 1.128-1.084 1.189l-.123.006H2.87c-.623 0-1.139-.47-1.2-1.073l-.007-.122V13.3h45.672zM32.304 2.41l.144.132 9.491 9.369h-9.386l-.176-.072-6.88-6.79 2.54-2.507c1.123-1.108 2.894-1.193 4.117-.255l.15.122zm-11.484 0l.143.132 9.492 9.369H7.06l9.491-9.369c1.123-1.108 2.895-1.193 4.118-.255l.15.122z"/>
    </g>
</svg>
