<svg xmlns="http://www.w3.org/2000/svg" width="68" height="44" viewBox="0 0 68 44">
    <g fill="#FFF">
        <path d="M54 26H61V28H54zM44 26H51V28H44zM34 26H41V28H34z"/>
        <path d="M64.643.457H3.758C1.682.457 0 2.143 0 4.223v35.15c0 2.08 1.682 3.766 3.758 3.766H63.885c2.076 0 3.758-1.686 3.758-3.766V3.457c0-1.657-1.343-3-3-3zm.495 38.916c0 .693-.561 1.256-1.253 1.256H3.758c-.692 0-1.253-.563-1.253-1.256V21.798h62.633v17.575zm0-20.086H2.505v-7.532h62.633v7.532zm0-10.042H2.505V4.223c0-.693.561-1.255 1.253-1.255h60.127c.692 0 1.253.562 1.253 1.255v5.022z"/>
        <path d="M12.492 37.782c.187-.158.362-.329.524-.511 1.698 1.925 4.613 2.29 6.756.847C21.155 37.177 21.985 35.642 22 34 22 31.24 19.702 29 16.867 29c-.255-.003-.51.018-.76.063l-.034.009h-.037c-1.176.19-2.245.777-3.02 1.66-1.854-2.09-5.096-2.318-7.24-.512-2.145 1.806-2.38 4.963-.525 7.05 1.854 2.09 5.096 2.318 7.24.512zm4.05-6.256c.107-.02.216-.029.325-.026 1.417 0 2.566 1.119 2.566 2.5-.001.528-.178 1.042-.504 1.465-.046.061-.082.125-.135.189-.009.01-.022.016-.032.026-.485.521-1.173.819-1.895.819-1.418-.024-2.547-1.162-2.523-2.542.021-1.225.952-2.255 2.198-2.431zM9.166 31.5c1.418 0 2.567 1.119 2.567 2.5 0 1.38-1.15 2.499-2.567 2.499-1.417 0-2.566-1.12-2.566-2.5s1.149-2.5 2.566-2.5z"/>
    </g>
</svg>
