<svg xmlns="http://www.w3.org/2000/svg" width="37" height="41" viewBox="0 0 37 41">
    <g fill="#FFF">
        <g>
            <path d="M8.5 5C6.57 5 5 6.57 5 8.5S6.57 12 8.5 12 12 10.43 12 8.5 10.43 5 8.5 5zm0 5.603c-1.16 0-2.103-.943-2.103-2.103 0-1.16.943-2.103 2.103-2.103 1.16 0 2.103.943 2.103 2.103 0 1.16-.943 2.103-2.103 2.103zM4.801 3.84L4.16 3.2c-.265-.265-.695-.265-.96 0s-.265.695 0 .96l.642.642c.132.133.306.199.48.199s.347-.066.48-.199c.265-.265.265-.695 0-.96zM13.801 3.199c-.265-.265-.695-.265-.96 0l-.642.642c-.265.265-.265.695 0 .96.132.133.306.199.48.199s.348-.066.48-.199l.642-.642c.265-.265.265-.695 0-.96zM16.133 9c0-.375-.304-.679-.68-.68h-.907c-.375 0-.679.305-.679.68 0 .187.076.357.199.48.123.123.293.199.48.199h.908c.375 0 .679-.304.679-.68zM3.133 9c0-.375-.304-.679-.68-.68h-.907c-.375 0-.679.305-.679.68 0 .187.076.357.199.48.123.123.293.199.48.199h.908c.375 0 .679-.304.679-.68zM8.414 3.133c.375 0 .68-.304.68-.68v-.907c0-.375-.305-.679-.68-.679-.187 0-.357.076-.48.199-.123.123-.199.293-.199.48v.908c0 .375.304.679.68.679z" transform="translate(10)"/>
        </g>
        <path d="M36.998 29.757l-.001-.036-.01-.07h-.001l-1.188-5.7-.001-.006-1.188-5.7-.001-.005-1.189-5.705c-.065-.312-.337-.535-.652-.535H4.233c-.315 0-.587.223-.652.535l-1.189 5.704-.001.007-1.188 5.7-.001.004-1.188 5.7c-.005.024-.008.048-.01.073l-.002.017L0 29.79v2.702c0 .372.299.674.667.674h15.828v3.785h-5.129c-.368 0-.666.302-.666.674v2.029H4.233c-.368 0-.667.301-.667.673 0 .372.299.674.667.674H32.766c.368 0 .666-.302.666-.674 0-.372-.298-.673-.666-.673H26.3v-2.03c0-.371-.298-.673-.667-.673h-5.129v-3.785h15.829c.368 0 .667-.302.667-.674v-2.69V29.788l-.002-.031zm-1.487-.642H25.066l-.303-4.358h9.84l.908 4.358zm-2.097-10.063l.909 4.358H24.67l-.303-4.358h9.047zm-1.188-5.705l.908 4.358h-8.86l-.303-4.358h8.255zm-17.86 0h8.268l.303 4.358h-8.874l.303-4.358zm-.396 5.705h9.06l.303 4.358h-9.666l.303-4.358zm-.396 5.706h9.852l.303 4.357H13.271l.303-4.357zm-8.8-11.41h8.255l-.303 4.357h-8.86l.908-4.358zm-1.188 5.704h9.047l-.303 4.358H2.678l.908-4.358zm21.38 19.246v1.355H12.034v-1.355h12.934zM17.83 36.95v-3.785h1.342v3.785h-1.342zm2.016-5.132H1.334v-1.355H4.51c.368 0 .667-.302.667-.674 0-.372-.299-.674-.667-.674H1.489l.908-4.357h9.84l-.303 4.357h-4.54c-.368 0-.666.302-.666.674 0 .372.298.673.667.673h28.271v1.356h-15.82z"/>
    </g>
</svg>
