<svg xmlns="http://www.w3.org/2000/svg" width="117" height="37" viewBox="0 0 117 37">
    <g fill="none" fill-rule="evenodd" stroke="#FFF" stroke-width="3">
        <path d="M16.5 24.75L6.802 29.849 8.654 19.049.808 11.401 11.651 9.826 16.5 0 21.349 9.826 32.192 11.401 24.346 19.049 26.198 29.849zM55.5 24.75L45.802 29.849 47.654 19.049 39.808 11.401 50.651 9.826 55.5 0 60.349 9.826 71.192 11.401 63.346 19.049 65.198 29.849zM94.5 24.75L84.802 29.849 86.654 19.049 78.808 11.401 89.651 9.826 94.5 0 99.349 9.826 110.192 11.401 102.346 19.049 104.198 29.849z" transform="translate(3 4)"/>
    </g>
</svg>
