<svg xmlns="http://www.w3.org/2000/svg" width="40" height="40" viewBox="0 0 40 40">
    <g fill="#FFF">
        <path d="M23.333 14.974l14.684 2.928C39.2 18.153 40 19.157 40 20.345v17.067c0 1.389-1.117 2.51-2.5 2.51h-15c.467 0 .833-.369.833-.837v-.837H37.5c.45 0 .833-.368.833-.836V20.345c0-.385-.266-.736-.65-.82l-14.35-2.844v-1.707z"/>
        <path d="M32.5 23.19c.467 0 .833.368.833.836 0 .469-.366.837-.833.837h-3.333c-.467 0-.834-.368-.834-.837 0-.468.367-.836.834-.836H32.5zM32.5 28.21c.467 0 .833.367.833.836 0 .468-.366.836-.833.836h-3.333c-.467 0-.834-.368-.834-.836 0-.469.367-.837.834-.837H32.5zM32.5 33.229c.467 0 .833.368.833.836 0 .469-.366.837-.833.837h-3.333c-.467 0-.834-.368-.834-.837 0-.468.367-.836.834-.836H32.5zM23.333 39.085c0 .468-.366.837-.833.837-.467 0-.833-.369-.833-.837V15.66c0-.25.116-.485.3-.652.2-.151.45-.218.7-.168l.666.134v24.111z"/>
        <path d="M21.667 38.248v.837c0 .468.366.837.833.837h-6.667c.467 0 .834-.369.834-.837v-.837h5zM17.5 8.13c.467 0 .833.369.833.837 0 .469-.366.837-.833.837h-3.333c-.467 0-.834-.368-.834-.837 0-.468.367-.836.834-.836H17.5zM18.333 13.987c0 .468-.366.837-.833.837h-3.333c-.467 0-.834-.369-.834-.837 0-.469.367-.837.834-.837H17.5c.467 0 .833.368.833.837zM17.5 18.17c.467 0 .833.368.833.837 0 .468-.366.836-.833.836h-3.333c-.467 0-.834-.368-.834-.836 0-.469.367-.837.834-.837H17.5zM17.5 23.19c.467 0 .833.368.833.836 0 .469-.366.837-.833.837h-3.333c-.467 0-.834-.368-.834-.837 0-.468.367-.836.834-.836H17.5zM10 24.026c0 .469-.367.837-.833.837H5.833c-.466 0-.833-.368-.833-.837 0-.468.367-.836.833-.836h3.334c.466 0 .833.368.833.836zM9.167 8.13c.466 0 .833.369.833.837 0 .469-.367.837-.833.837H5.833c-.466 0-.833-.368-.833-.837 0-.468.367-.836.833-.836h3.334zM9.167 13.15c.466 0 .833.368.833.837 0 .468-.367.837-.833.837H5.833c-.466 0-.833-.369-.833-.837 0-.469.367-.837.833-.837h3.334zM9.167 18.17c.466 0 .833.368.833.837 0 .468-.367.836-.833.836H5.833c-.466 0-.833-.368-.833-.836 0-.469.367-.837.833-.837h3.334z"/>
        <path d="M15 30.719c0-.469-.383-.837-.833-.837h-5c-.467 0-.834.368-.834.837v7.53H6.667v-7.53c0-1.389 1.116-2.51 2.5-2.51h5c1.383 0 2.5 1.121 2.5 2.51v7.53H15v-7.53z"/>
        <path d="M8.333 38.248h8.334v.837c0 .468-.367.837-.834.837H7.5c-.467 0-.833-.369-.833-.837v-.837h1.666z"/>
        <path d="M2.917.1l18.316 2.794c1.217.2 2.1 1.238 2.1 2.476v9.604l-.666-.134c-.25-.05-.5.017-.7.168-.184.167-.3.401-.3.652V5.37c0-.418-.3-.77-.7-.837L2.65 1.756c-.05-.017-.1-.017-.15-.017-.2 0-.383.067-.533.2-.2.168-.3.386-.3.637v34.836c0 .468.383.836.833.836h4.167v.837c0 .468.366.837.833.837h-5c-1.383 0-2.5-1.121-2.5-2.51V2.576c0-.737.317-1.44.883-1.908C1.45.183 2.183-.018 2.917.1z"/>
    </g>
</svg>
