<svg xmlns="http://www.w3.org/2000/svg" width="49" height="49" viewBox="0 0 49 49">
    <g fill="#FFF">
        <path d="M24.5 49C11.273 49 0 37.728 0 24.5 0 15.223 5.59 6.567 13.875 2.487c.356-.175.786-.028.961.327.175.356.029.786-.327.961C6.711 7.615 1.436 15.767 1.436 24.5c0 12.441 10.623 23.064 23.064 23.064S47.564 36.941 47.564 24.5 36.941 1.436 24.5 1.436c-2.227 0-4.442.332-6.583.988-.38.116-.78-.097-.896-.476-.117-.379.096-.78.476-.896C19.774.354 22.13 0 24.5 0 37.727 0 49 11.272 49 24.5 49 37.727 37.728 49 24.5 49z"/>
        <path d="M24.5 29c-2.481 0-4.5-2.019-4.5-4.5s2.019-4.5 4.5-4.5 4.5 2.019 4.5 4.5-2.019 4.5-4.5 4.5zm0-7.545c-1.68 0-3.045 1.366-3.045 3.045 0 1.68 1.366 3.045 3.045 3.045 1.68 0 3.045-1.366 3.045-3.045 0-1.68-1.366-3.045-3.045-3.045z"/>
        <g>
            <path d="M10.648 37.924c-.124 0-.247-.032-.356-.095-3.047-1.747-5.602-4.259-7.39-7.264C1.061 27.468.087 23.92.087 20.307c0-.39.319-.706.712-.706h12.658c.394 0 .712.316.712.706 0 2.091 1.262 4.205 3.214 5.385.33.2.439.623.245.955l-6.364 10.924c-.157.233-.362.35-.616.353zM1.524 21.012c.117 3.117 1.012 6.158 2.605 8.836 1.542 2.594 3.7 4.792 6.266 6.395l5.668-9.73c-1.859-1.342-3.062-3.361-3.281-5.5H1.524zM23.988 15.025c-.13 0-.258-.035-.37-.103-1.923-1.163-4.313-1.163-6.235 0-.4.191-.73.108-.987-.25L10.032 3.748c-.197-.337-.08-.768.26-.963C13.382 1.013 16.912.076 20.5.076c3.589 0 7.119.937 10.209 2.709.34.195.456.626.26.963l-6.364 10.924c-.159.233-.364.35-.617.353zM11.627 3.665l5.655 9.706c2.038-.977 4.399-.977 6.437 0l5.654-9.707C26.653 2.238 23.6 1.487 20.5 1.487c-3.1 0-6.152.75-8.873 2.177zM30.352 37.924c-.254-.002-.46-.12-.616-.353l-.747-1.281c-.46-.79.773-1.496 1.233-.706l.383.659c2.567-1.603 4.724-3.801 6.266-6.395 1.593-2.678 2.488-5.719 2.605-8.836H28.218c-.219 2.14-1.422 4.159-3.28 5.501l3.408 5.852c.46.79-.772 1.495-1.233.705l-3.741-6.423c-.194-.332-.084-.756.245-.955 1.952-1.18 3.214-3.294 3.214-5.385 0-.39.318-.706.712-.706H40.2c.393 0 .712.316.712.706 0 3.614-.973 7.16-2.815 10.258-1.788 3.005-4.343 5.517-7.39 7.264-.109.063-.232.095-.356.095z" transform="translate(4 4)"/>
        </g>
    </g>
</svg>
