<svg xmlns="http://www.w3.org/2000/svg" width="66" height="67" viewBox="0 0 66 67">
    <g fill="#FFF">
        <path d="M64.875 11.026c-.368-.947-1.166-1.633-2.135-1.837-.99-.208-2.024.11-2.767.852l-6.92 6.91-3.38-3.374 7.36-7.35c.767-.766 1.096-1.831.881-2.851-.21-.997-.92-1.819-1.897-2.198C49.593-1.314 42.293.22 37.421 5.085c-2.565 2.562-4.24 5.796-4.845 9.356-.13.606-.255 1.249-.388 1.929-.773 3.972-1.737 8.916-4.56 11.735L2.341 53.354c-3.123 3.117-3.123 8.19 0 11.308C3.902 66.22 5.954 67 8.004 67s4.102-.78 5.663-2.338l25.285-25.248c2.824-2.82 7.775-3.782 11.753-4.555.682-.132 1.325-.257 1.932-.386 3.565-.604 6.804-2.277 9.37-4.839.756-.755.975-1.781.662-2.694 3.435-4.543 4.29-10.555 2.206-15.914zm-3.048.865c.115-.115.251-.167.373-.14.105.021.183.096.232.222 1.675 4.308 1.096 9.116-1.477 12.87l-6.05-6.041 6.922-6.911zm-1.674 15.893c-2.184 2.181-4.944 3.603-7.98 4.113l-.056.01c-.591.127-1.233.252-1.912.384-4.329.84-9.716 1.887-13.106 5.272L11.814 62.811c-2.1 2.098-5.518 2.098-7.619 0-2.1-2.097-2.1-5.51 0-7.607l25.286-25.248c3.39-3.385 4.438-8.765 5.28-13.087.132-.678.257-1.319.383-1.909l.011-.057c.51-3.03 1.935-5.786 4.12-7.967 2.82-2.818 6.6-4.32 10.449-4.32 1.796 0 3.608.328 5.344 1.001.158.062.253.162.281.298.033.153-.029.321-.168.46l-8.288 8.276c-.512.511-.512 1.34 0 1.85L60.16 27.75c.005.004.01.008.013.013l-.02.021z"/>
        <path d="M45.655 16.365c-.234-.234-.55-.365-.881-.365-.331 0-.648.131-.882.365l-3.527 3.527c-.487.487-.487 1.276 0 1.763l4.98 4.98c.233.234.55.365.881.365.33 0 .648-.131.882-.365l3.527-3.527c.487-.487.487-1.276 0-1.763l-4.98-4.98zm.571 7.624l-3.216-3.215 1.764-1.764 3.216 3.216-1.764 1.763zM32.738 33.388l-21.35 21.35c-.517.517-.517 1.356 0 1.874.259.259.598.388.937.388.339 0 .678-.13.937-.388l21.35-21.35c.517-.518.517-1.357 0-1.874-.518-.517-1.356-.517-1.874 0z"/>
    </g>
</svg>
