<svg xmlns="http://www.w3.org/2000/svg" width="44" height="30" viewBox="0 0 44 30">
    <path fill="#FFF" d="M43.266 16.911c-.405 0-.733.328-.733.732v1.706h-1.467V1.95c0-1.072-.88-1.95-1.955-1.95L4.889.007c-1.076 0-1.956.877-1.956 1.95v17.399H1.467v-1.707c0-.403-.329-.73-.734-.73-.405 0-.733.327-.733.73v4.875c0 .404.329.731.733.731.405 0 .734-.327.734-.731v-1.706h1.466v.47c0 1.073.88 1.95 1.956 1.95h.558l.009.021 1.466 2.925c.124.248.378.404.656.404h1.39c.539 1.965 2.335 3.411 4.477 3.412 2.14 0 3.939-1.447 4.476-3.412h1.39c.278 0 .531-.156.656-.404l1.467-2.925.008-.021 1.116-.007.009.021 1.466 2.925c.124.248.378.404.656.404h1.39c.539 1.965 2.335 3.411 4.477 3.412 2.14 0 3.939-1.447 4.476-3.412h1.39c.278 0 .531-.156.656-.404l1.467-2.925.008-.021h.558c1.075 0 1.956-.877 1.956-1.95v-.47h1.466v1.705c0 .404.329.732.734.732.404 0 .733-.328.733-.732v-4.873c0-.404-.329-.732-.734-.732zM4.4 1.957c0-.264.224-.487.489-.487l34.222-.007c.265 0 .489.223.489.487v14.976h-3.911V5.092c0-.404-.329-.732-.734-.732-.405 0-.733.328-.733.732v11.835h-7.333V5.092c0-.404-.329-.732-.734-.732-.405 0-.733.328-.733.732v11.835l-6.845.007V5.098c0-.403-.328-.73-.733-.73-.405 0-.733.327-.733.73v11.836H9.778V5.098c0-.403-.329-.73-.734-.73-.405 0-.733.327-.733.73v11.836H4.4V1.957zm4.41 23.169h-.78l-.946-1.888h2.242c-.299.57-.48 1.21-.517 1.888zm6.881 2.484c-.577.574-1.367.927-2.247.928-.88 0-1.67-.353-2.247-.928-.576-.576-.93-1.364-.93-2.24 0-.825.315-1.568.831-2.132h4.692c.516.564.832 1.307.832 2.131 0 .877-.355 1.665-.93 2.24zm3.166-2.484h-.778c-.036-.68-.218-1.318-.517-1.888h2.242l-.947 1.888zm7.063-.008h-.78l-.945-1.887h2.242c-.299.57-.48 1.209-.517 1.887zm6.882 2.484c-.577.575-1.367.928-2.247.928-.88 0-1.67-.353-2.247-.928-.576-.575-.93-1.363-.93-2.24 0-.825.315-1.567.831-2.131h4.692c.516.564.832 1.306.832 2.131 0 .877-.355 1.665-.93 2.24zm3.166-2.484h-.778c-.036-.679-.218-1.317-.517-1.887h2.242l-.947 1.887zm3.143-3.35l-34.222.008c-.265 0-.489-.223-.489-.487v-2.893h4.46c.059.015.12.027.184.027.065 0 .127-.011.186-.027h8.429c.06.015.12.027.185.027s.126-.011.186-.027l7.94-.007c.06.015.12.026.185.026s.126-.01.186-.026h8.429c.06.015.12.026.185.026s.126-.01.185-.026h4.46v2.892c0 .264-.224.488-.49.488z"/>
</svg>
