<svg xmlns="http://www.w3.org/2000/svg" width="43" height="44" viewBox="0 0 43 44">
    <g fill="#FFF">
        <path d="M33 26.861c0-5.044-2.911-9.34-5.727-13.495-1.819-2.684-3.537-5.22-4.33-7.763-.113-.36-.433-.603-.794-.603-.361 0-.681.243-.793.603-.796 2.55-2.516 5.086-4.336 7.77-2.813 4.149-5.722 8.439-5.722 13.488 0 6.639 5.197 11.368 10.85 11.368 5.984 0 10.852-5.1 10.852-11.368zm-20.033 0c0-4.492 2.752-8.55 5.414-12.475 1.433-2.112 2.805-4.137 3.768-6.21.961 2.068 2.332 4.091 3.763 6.203 2.664 3.93 5.419 7.996 5.419 12.482 0 5.304-4.12 9.619-9.182 9.619-4.416 0-9.182-3.678-9.182-9.619zm-2.625 11.377c-.367-.294-.89-.22-1.17.163-.28.384-.21.933.156 1.226 3.344 2.678 7.302 4.19 11.449 4.372.465.02.85-.359.869-.837.019-.482-.339-.89-.8-.91-3.801-.168-7.434-1.556-10.504-4.014z"/>
        <path d="M43 21.841C43.012 10.391 34.491.497 22.875.001c-.462-.02-.855.346-.874.816-.02.471.34.869.804.888 10.394.445 18.527 9.288 18.515 20.134-.007 6.46-3.283 12.993-8.236 16.58l-.585-1.271c-.123-.268-.373-.452-.663-.487-.29-.034-.575.085-.756.317l-3.503 4.482c-.198.254-.238.598-.103.891.134.293.42.484.738.493L33.87 43c.282 0 .546-.144.702-.385.16-.247.182-.56.059-.829l-.825-1.796c5.39-3.762 9.187-10.826 9.195-18.149zM29.938 41.184l1.613-2.064.982 2.136-2.595-.072z"/>
        <path d="M22.744 32.597l5.143-8.4c.152-.248.15-.552-.003-.799-.153-.246-.436-.398-.741-.398h-3.155l-1.148-5.357c-.07-.327-.35-.58-.703-.633-.352-.053-.704.103-.881.393l-5.143 8.4c-.152.248-.15.552.003.798.153.247.436.399.741.399h3.155l1.148 5.357c.07.327.35.58.703.633.35.053.703-.102.881-.393zm-1.19-6.554c-.08-.374-.431-.643-.84-.643h-2.38l3.274-5.348.837 3.905c.08.374.432.643.84.643h2.38l-3.273 5.348-.837-3.905z"/>
        <circle cx="6" cy="37" r="1"/>
        <path d="M4.62 34.87c.403-.253.525-.783.273-1.186-2.073-3.308-3.17-7.069-3.17-10.875-.003-6.516 3.135-12.5 8.442-16.198l.601 1.287c.14.3.443.497.781.497.26 0 .51-.119.675-.326l3.591-4.517c.203-.255.244-.603.106-.898-.138-.295-.43-.487-.757-.496L9.386 2c-.297-.007-.58.14-.744.388-.163.25-.186.565-.06.836l.845 1.808C3.41 9.112-.003 15.825 0 22.81c.001 4.129 1.188 8.204 3.432 11.786.253.403.785.524 1.187.273zm8.773-31.04l-1.655 2.08-1.006-2.152 2.661.072z"/>
    </g>
</svg>
