<?xml version="1.0" encoding="UTF-8"?>
<svg width="153px" height="48px" viewBox="0 0 153 48" version="1.1" xmlns="http://www.w3.org/2000/svg" xmlns:xlink="http://www.w3.org/1999/xlink">
    <title>bloomberg-business@1.5x</title>
    <g id="Page-1" stroke="none" stroke-width="1" fill="none" fill-rule="evenodd">
        <g id="Home" transform="translate(-1037.000000, -627.000000)" fill="#4D4D4D" fill-rule="nonzero">
            <g id="Group-11" transform="translate(0.000000, 580.000000)">
                <g id="bloomberg-business" transform="translate(1037.000000, 47.000000)">
                    <g id="Group">
                        <path d="M136.97945,22.5849614 L142.505565,22.5849614 C142.718473,23.273327 143.447437,23.961994 144.8139,23.961994 C146.665217,23.961994 147.303634,22.8245633 147.303634,21.1488572 L147.303634,19.9526562 L147.18158,19.9526562 C146.271216,20.9999725 145.055868,21.7778497 143.264813,21.7778497 C139.74266,21.7778497 136.675995,19.2046162 136.675995,14.1793063 C136.675995,9.5723202 139.196014,5.98281315 142.991643,5.98281315 C145.177923,5.98281315 146.514102,6.850202 147.394487,8.2263304 L147.485034,8.2263304 L147.485034,6.46171547 L152.950581,6.46171547 L152.950581,20.40142 C152.950581,22.9740507 152.040218,24.9782675 150.673754,26.1753726 C149.247028,27.431248 147.211864,27.9399875 144.904753,27.9399875 C140.562477,27.9399875 137.526096,26.1753726 136.97945,22.5849614 M147.545603,13.9101687 C147.545603,11.9056505 146.574671,10.2908244 144.904753,10.2908244 C143.295098,10.2908244 142.262679,11.7263258 142.262679,13.9101687 C142.262679,16.0641743 143.295098,17.6193259 144.904753,17.6193259 C146.574671,17.6193259 147.545603,16.0343371 147.545603,13.9101687 M130.573255,9.21397227 L130.664107,9.21397227 C131.847947,6.97015363 133.396728,6.13260198 135.3701,6.13260198 C135.824976,6.13260198 136.129654,6.19257779 136.311054,6.28208943 L136.311054,11.2178877 L136.189917,11.2178877 C132.820103,10.6199379 130.846425,12.2055295 130.846425,15.8248738 L130.846425,22.5554256 L125.107708,22.5554256 L125.107708,6.46201686 L130.573255,6.46201686 L130.573255,9.21397227 L130.573255,9.21397227 Z M0,0 L11.2345486,0 C13.3593423,0 14.9989758,0.508739539 16.153755,1.43580282 C17.4584261,2.48281773 18.1574116,4.03857217 18.1574116,5.89300012 C18.1574116,8.04700574 17.2770263,9.39329693 15.4547694,10.2305472 L15.4547694,10.3206616 C17.8236728,11.097936 19.1889124,13.1916645 19.1889124,15.7347594 C19.1889124,18.1579027 18.2479585,20.0421679 16.6991779,21.1792972 C15.3942009,22.1066618 13.6943047,22.5554256 11.4474562,22.5554256 L0,22.5554256 L0,0 Z M10.688208,17.5593501 C12.0543653,17.5593501 13.0555818,16.7516357 13.0555818,15.2564598 C13.0555818,13.700404 11.9625948,12.9529668 10.6579237,12.9529668 L6.2247952,12.9529668 L6.2247952,17.5593501 L10.688208,17.5593501 Z M10.1112772,8.82428019 C11.3254014,8.82428019 12.2057867,8.16665598 12.2057867,6.850202 C12.2057867,5.56418802 11.2951171,4.93579824 10.080993,4.93579824 L6.2247952,4.93579824 L6.2247952,8.82428019 L10.1112772,8.82428019 L10.1112772,8.82428019 Z" id="Shape"></path>
                    </g>
                    <path d="M21,0 L26.8898989,0 L26.8898989,23.4406003 L21,23.4406003 L21,0 Z M28.0143481,15.1084894 C28.0143481,9.82363458 31.3540478,6.24861338 36.5147066,6.24861338 C41.6765889,6.24861338 44.9557225,9.82363458 44.9557225,15.1084894 C44.9557225,20.4249788 41.6765889,23.9683654 36.5147066,23.9683654 C31.3540478,23.9683654 28.0143481,20.4249788 28.0143481,15.1084894 M39.1263896,15.1084894 C39.1263896,12.1865188 38.2148394,10.3523393 36.4541405,10.3523393 C34.6937474,10.3523393 33.843681,12.1865188 33.843681,15.1084894 C33.843681,18.0620946 34.6937474,19.8962741 36.4541405,19.8962741 C38.2148394,19.8962741 39.1263896,18.0620946 39.1263896,15.1084894 M45.625926,15.1084894 C45.625926,9.82363458 48.9656256,6.24861338 54.1262844,6.24861338 C59.2881668,6.24861338 62.5673003,9.82363458 62.5673003,15.1084894 C62.5673003,20.4249788 59.2881668,23.9683654 54.1262844,23.9683654 C48.9656256,23.9683654 45.625926,20.4249788 45.625926,15.1084894 M56.7379675,15.1084894 C56.7379675,12.1865188 55.8264173,10.3523393 54.0657183,10.3523393 C52.3053253,10.3523393 51.4552588,12.1865188 51.4552588,15.1084894 C51.4552588,18.0620946 52.3053253,19.8962741 54.0657183,19.8962741 C55.8264173,19.8962741 56.7379675,18.0620946 56.7379675,15.1084894 M63.6917495,6.71530179 L69.1570741,6.71530179 L69.1570741,9.23291354 L69.2479232,9.23291354 C70.3408658,7.27438825 71.8280997,6.21760522 74.1666235,6.21760522 C76.2307647,6.21760522 77.7797882,7.27438825 78.5692886,9.1085677 L78.6598318,9.1085677 C79.9959564,6.90103752 81.7263723,6.21760522 83.7299474,6.21760522 C87.5254221,6.21760522 89.1649889,9.07755954 89.1649889,12.9325938 L89.1649889,23.4402871 L83.4265052,23.4402871 L83.4265052,13.9893768 C83.4265052,12.27923 82.910164,11.1601175 81.4532131,11.1601175 C80.0262394,11.1601175 79.2969993,12.5282349 79.2969993,14.3317194 L79.2969993,23.4402871 L73.5597391,23.4402871 L73.5597391,13.9893768 C73.5597391,12.27923 73.0433979,11.1601175 71.5864471,11.1601175 C70.1582498,11.1601175 69.4305391,12.5282349 69.4305391,14.3317194 L69.4305391,23.4402871 L63.6917495,23.4402871 L63.6917495,6.71530179 L63.6917495,6.71530179 Z M96.1827018,21.2643915 L96.1224416,21.2643915 L96.1224416,23.4406003 L90.657117,23.4406003 L90.657117,0 L96.3956008,0 L96.3956008,8.45614356 L96.4864499,8.45614356 C97.5793925,6.99531485 99.0363433,6.21760522 101.131991,6.21760522 C105.230908,6.21760522 107.598491,10.0099967 107.598491,15.0467863 C107.598491,20.7356868 105.018009,24 100.767983,24 C99.0060603,24 97.1851011,23.1295791 96.1827018,21.2643915 M101.769159,14.98477 C101.769159,12.2795432 100.798266,10.5387015 99.0666264,10.5387015 C97.3062333,10.5387015 96.1827018,12.2795432 96.1827018,14.98477 C96.1827018,17.6577357 97.3062333,19.4302121 99.0666264,19.4302121 C100.828549,19.4302121 101.769159,17.6887439 101.769159,14.98477 M108.328649,15.0467863 C108.328649,9.82363458 111.698632,6.18691028 116.587355,6.18691028 C119.016422,6.18691028 120.899171,6.96368026 122.325839,8.36280587 C124.208588,10.2279935 125.058654,13.1499641 124.996864,16.6012659 L114.037156,16.6012659 C114.280338,18.6844502 115.251231,19.7409201 116.981341,19.7409201 C117.98374,19.7409201 118.864089,19.2748581 119.229321,18.1557455 L124.753988,18.1557455 C123.783096,21.978832 120.899171,23.9066623 116.800254,23.9066623 C111.730139,23.9066623 108.328649,20.3942838 108.328649,15.0467863 M114.037156,13.3059445 L119.259604,13.3059445 C119.167532,11.2854029 118.074589,10.2279935 116.708181,10.2279935 C115.130404,10.2279935 114.250055,11.3781142 114.037156,13.3059445" id="Shape"></path>
                    <path d="M0,24 L11.2634774,24 C13.3937425,24 15.037598,24.528684 16.1953508,25.4930313 C17.5033814,26.5801535 18.2041668,28.1968993 18.2041668,30.1246542 C18.2041668,32.3631049 17.3215145,33.7618625 15.4945654,34.6325625 L15.4945654,34.7252701 C17.8695686,35.5336431 19.2383237,37.7100799 19.2383237,40.3522472 C19.2383237,42.8703868 18.2949469,44.8291486 16.7421781,46.0102312 C15.4338408,46.9733257 13.7295675,47.4399958 11.4769333,47.4399958 L0,47.4399958 L0,24 Z M10.7157301,42.2489951 C12.0854052,42.2489951 13.0891999,41.4096153 13.0891999,39.8545701 C13.0891999,38.2375111 11.9933984,37.4613979 10.6853678,37.4613979 L6.24082401,37.4613979 L6.24082401,42.2489951 L10.7157301,42.2489951 L10.7157301,42.2489951 Z M10.1373137,33.1714778 C11.3545642,33.1714778 12.2372165,32.4868194 12.2372165,31.1187555 C12.2372165,29.7829514 11.324202,29.1293 10.1069515,29.1293 L6.24082401,29.1293 L6.24082401,33.1714778 L10.1373137,33.1714778 L10.1373137,33.1714778 Z M30.625397,47.440309 L30.625397,45.2638722 L30.5343102,45.2638722 C29.3465019,47.0046458 27.8250155,47.9689931 25.6938303,47.9689931 C21.9804343,47.9689931 20.1534851,45.3578326 20.1534851,41.5026361 L20.1534851,30.7153521 L25.9069795,30.7153521 L25.9069795,40.1962729 C25.9069795,42.0930208 26.607765,42.8396931 27.9777468,42.8396931 C29.468871,42.8396931 30.3515233,41.8133319 30.3515233,39.8855771 L30.3515233,30.7153521 L36.1050178,30.7153521 L36.1050178,47.440309 L30.625397,47.440309 Z M37.0192591,42.1550347 L42.3473752,42.1550347 C42.438462,43.5230986 43.2300275,44.3314715 44.6907894,44.3314715 C45.8169532,44.3314715 46.6692432,43.9897688 46.6692432,42.8396931 C46.6692432,41.4716292 44.8738831,41.3789215 42.8638403,41.035966 C40.2465523,40.6322493 37.2327149,39.7618625 37.2327149,35.5649632 C37.2327149,32.1454299 40.4900638,30.217675 44.2954667,30.217675 C49.0138842,30.217675 51.4787475,32.1144229 51.6918966,35.3779819 L46.2742272,35.3779819 C46.1214958,34.1348854 45.2692058,33.7931826 44.325829,33.7931826 C43.4735389,33.7931826 42.6819734,34.1348854 42.6819734,35.0979799 C42.6819734,36.0316333 44.1123731,36.2803153 45.8776777,36.5280576 C48.7084215,36.9637208 52.3006752,37.6471264 52.3006752,42.2800021 C52.3006752,46.2902333 48.9218774,48 44.6604272,48 C40.0634587,48 37.0508481,45.9795375 37.0192591,42.1550347 M53.2461989,30.7153521 L59,30.7153521 L59,47.440309 L53.2461989,47.440309 L53.2461989,30.7153521 Z M53.2461989,24.6846583 L59,24.6846583 L59,29.3782951 L53.2461989,29.3782951 L53.2461989,24.6846583 Z" id="Shape"></path>
                    <g id="Group" transform="translate(61.000000, 31.000000)">
                        <path d="M5.44862536,2.7330693 L5.53868364,2.7330693 C6.77759349,0.989096213 8.34813687,0.0715292319 10.4915848,0.0715292319 C14.0549718,0.0715292319 15.8975156,2.52572299 15.8975156,6.16351858 L15.8975156,16.4536748 L10.1894636,16.4536748 L10.1894636,7.46479539 C10.1894636,5.69013743 9.52558803,4.71388192 8.04510293,4.71388192 C6.59595567,4.71388192 5.72032145,5.89748374 5.72032145,7.73083023 L5.72032145,16.4536748 L0.012573718,16.4536748 L0.012573718,0.544910379 L5.44862536,0.544910379 L5.44862536,2.7330693 Z M16.8954587,8.46935249 C16.8954587,3.50197851 20.2473913,0.0423339189 25.1096257,0.0423339189 C27.5247697,0.0423339189 29.3974343,0.781749908 30.8164607,2.11251994 C32.6891252,3.88598625 33.5346386,6.66639295 33.4743969,9.94848238 L22.5721728,9.94848238 C22.8140523,11.929295 23.7809618,12.9347458 25.5018052,12.9347458 C26.4988355,12.9347458 27.3744697,12.4908579 27.7365284,11.4264206 L33.2328217,11.4264206 C32.2659122,15.0639183 29.3974343,16.8975627 25.3201674,16.8975627 C20.2775122,16.8975627 16.8954587,13.5555931 16.8954587,8.46935249 M22.5721728,6.81356116 L27.7666492,6.81356116 C27.6762867,4.891735 26.589198,3.88598625 25.2301091,3.88598625 C23.6592614,3.88598625 22.7839315,4.97991676 22.5721728,6.81356116 M34.0457802,11.4264206 L39.3303149,11.4264206 C39.4215902,12.7276974 40.2071661,13.4966066 41.6563134,13.4966066 C42.7735228,13.4966066 43.6190362,13.1715854 43.6190362,12.0776549 C43.6190362,10.776378 41.8367342,10.6881963 39.8438905,10.3619833 C37.2474129,9.9779756 34.2575389,9.15007994 34.2575389,5.15806775 C34.2575389,1.90547155 37.4889882,0.0718271433 41.2632211,0.0718271433 C45.9438177,0.0718271433 48.3899953,1.87597832 48.6017539,4.98021467 L43.225944,4.98021467 C43.0753398,3.79780449 42.2301306,3.4727832 41.2930377,3.4727832 C40.4475244,3.4727832 39.6634697,3.79780449 39.6634697,4.71388192 C39.6634697,5.60195567 41.0824961,5.83849729 42.8337645,6.07414517 C45.6420007,6.48853987 49.2056921,7.13858245 49.2056921,11.5452873 C49.2056921,15.3597443 45.8537594,16.9860424 41.6261925,16.9860424 C37.0657751,16.9860424 34.0759011,15.0642162 34.0457802,11.4264206 M49.812977,11.4264206 L55.0975116,11.4264206 C55.1887869,12.7276974 55.9743628,13.4966066 57.4235101,13.4966066 C58.5407196,13.4966066 59.3862329,13.1715854 59.3862329,12.0776549 C59.3862329,10.776378 57.6039309,10.6881963 55.6110872,10.3619833 C53.0146097,9.9779756 50.0247356,9.15007994 50.0247356,5.15806775 C50.0247356,1.90547155 53.2561849,0.0718271433 57.0304179,0.0718271433 C61.7110144,0.0718271433 64.157192,1.87597832 64.3689507,4.98021467 L58.9931407,4.98021467 C58.8425365,3.79780449 57.9973274,3.4727832 57.0602345,3.4727832 C56.2147211,3.4727832 55.4306664,3.79780449 55.4306664,4.71388192 C55.4306664,5.60195567 56.8496928,5.83849729 58.6009613,6.07414517 C61.4091975,6.48853987 64.9728888,7.13858245 64.9728888,11.5452873 C64.9728888,15.3597443 61.6209561,16.9860424 57.3933893,16.9860424 C52.8329718,16.9860424 49.8430978,15.0642162 49.812977,11.4264206" id="Shape"></path>
                    </g>
                </g>
            </g>
        </g>
    </g>
</svg>