<svg xmlns="http://www.w3.org/2000/svg" width="37" height="37" viewBox="0 0 37 37">
    <g fill="#FFF">
        <path d="M29.396 16.615L30.629 16.615 30.629 17.848 29.396 17.848z" transform="rotate(-71.094 30.013 17.231)"/>
        <path d="M36.383 33.3H35.15v-4.317h.617c.34 0 .616-.276.616-.616v-4.933c0-.341-.276-.617-.616-.617h-.617v-7.753c.285-.624.533-1.264.744-1.916 1.325-4.09 1.458-8.037.394-11.734-.076-.264-.317-.446-.592-.446h-3.061c-.27 0-.508.174-.589.43l-2.18 6.908L5.716.033c-.155-.053-.325-.042-.472.03-.147.072-.259.2-.312.354l-1.199 3.5c-.053.155-.042.324.03.471.071.147.199.26.354.313l11.307 3.873.27 2.014c-.113.074-.199.184-.244.312-2.267 6.596-5.901 17.241-6.669 19.933H7.4c-.34 0-.617.276-.617.617v1.85H.617c-.34 0-.617.276-.617.617v2.466c0 .34.276.617.617.617h35.766c.34 0 .617-.276.617-.617v-2.466c0-.34-.276-.617-.617-.617zm-1.233-5.55h-1.233v-3.7h1.233v3.7zm-1.233-4.933H33.3c-.34 0-.617.276-.617.617v4.933c0 .34.276.616.617.616h.617V33.3h-11.1v-1.85c0-.34-.276-.617-.617-.617h-.617V11.208l.396-.389 6.402 2.193-2.453 7.77c-.1.315.068.653.378.765l1.493.54c.177.065.373.045.533-.054 2.187-1.342 4.087-2.651 5.585-4.795v5.579zm-21.013-.625c.016.002.03.008.046.008h5.404L11.8 25.477c.342-1.025.715-2.133 1.104-3.285zm1.671-4.925h4.213l-5.327 3.278c.367-1.081.74-2.183 1.114-3.278zm5.054-4.275c.2-.11.386-.246.552-.404l.169-.167v3.613h-4.439l3.718-3.042zm.721 7.975h-5.221l5.221-3.213v3.213zm0 4.933h-6.638l6.638-3.319v3.32zm-9.102 1.234h6.665l-7.723 3.251c.244-.776.612-1.903 1.058-3.251zm9.102.312v3.387h-8.046l8.046-3.387zM33.087 2.2h2.138c.859 3.328.69 6.88-.504 10.566-.221.695-.488 1.374-.799 2.033h-.005v.013c-1.284 2.687-3.1 4.224-5.978 6.013l-.656-.238 2.446-7.75c.004-.01.012-.017.015-.027l1.113-3.53c.002-.009 0-.016.002-.023L33.087 2.2zM5.1 3.734L5.9 1.4l23.595 8.082-.743 2.353-6.734-2.307c-.22-.075-.466-.02-.632.144l-1.742 1.714-.707.578c-.396.192-.86.182-1.247-.027-.388-.209-.65-.591-.707-1.028l-.387-2.877c-.031-.232-.19-.426-.411-.501L5.1 3.734zm11.172 8.57c.302.4.713.702 1.183.873l-2.06 1.685c.3-.878.594-1.735.877-2.557zM8.017 32.068h13.566V33.3H8.017v-1.233zm27.75 3.7H1.233v-1.234h34.534v1.234z"/>
        <path d="M17.882 9.661L19.116 9.661 19.116 10.895 17.882 10.895z" transform="rotate(-71.094 18.5 10.278)"/>
    </g>
</svg>
