<svg xmlns="http://www.w3.org/2000/svg" width="22" height="22" viewBox="0 0 22 22">
    <path fill="#FFAB16" d="M11 .5C16.799.5 21.5 5.201 21.5 11l-.004.307-.02.417-.035.392-.037.313-.032.216c-.03.194-.067.386-.107.577l-.091.383-.11.402-.07.22c-.06.19-.128.38-.2.565l-.138.34-.15.333-.112.23-.098.192c-.133.253-.276.5-.43.741l-.227.342-.167.234c-.11.151-.225.3-.344.444l-.294.343-.259.28-.041.043c-.14.144-.284.284-.432.42l-.229.204-.551.446C15.563 20.712 13.374 21.5 11 21.5s-4.563-.788-6.322-2.116l-.554-.449c-.152-.132-.3-.268-.445-.408l-.274-.276-.24-.26-.111-.127c-.185-.213-.36-.434-.527-.66l-.166-.234-.227-.342c-.154-.241-.297-.488-.43-.741l-.21-.422-.176-.395c-.077-.184-.15-.37-.216-.559l-.136-.41-.084-.287-.08-.308c-.047-.189-.088-.38-.124-.571l-.067-.408-.038-.285-.031-.301-.024-.328C.506 11.41.5 11.206.5 11 .5 5.201 5.201.5 11 .5zm0 14c-2.602 0-4.916 1.56-5.945 3.91C6.683 19.718 8.75 20.5 11 20.5c2.25 0 4.317-.782 5.945-2.09-1.03-2.35-3.343-3.91-5.945-3.91zm0-13l-.27.004C5.608 1.647 1.5 5.844 1.5 11l.004.285.013.282c.02.345.059.685.115 1.021l.075.39.051.23c.045.19.096.377.153.563l.166.497.106.277.092.219.138.306.116.236.096.181c.102.19.21.377.325.56l.176.27.208.295.22.287.145.18c.13.157.267.31.408.458l.17.174.038-.076c1.179-2.337 3.495-3.92 6.135-4.115l.274-.015L11 13.5c2.773 0 5.26 1.533 6.56 3.896l.125.24.037.075.171-.174.192-.208.206-.238.072-.088.222-.282.253-.353.117-.173.153-.24.202-.348.145-.271.125-.252c.072-.152.14-.306.205-.462l.138-.354c.112-.306.208-.617.288-.935l.082-.354c.046-.214.084-.43.114-.649l.049-.41c.02-.21.034-.422.04-.635L20.5 11c0-5.156-4.108-9.353-9.23-9.496L11 1.5zm0 2c2.485 0 4.5 2.015 4.5 4.5s-2.015 4.5-4.5 4.5S6.5 10.485 6.5 8 8.515 3.5 11 3.5zm0 1C9.067 4.5 7.5 6.067 7.5 8s1.567 3.5 3.5 3.5 3.5-1.567 3.5-3.5-1.567-3.5-3.5-3.5z"/>
</svg>
