<svg xmlns="http://www.w3.org/2000/svg" width="38" height="47" viewBox="0 0 38 47">
    <path fill="#FFF" d="M13.774.35c-.129-.09-.29-.12-.438-.087l-.087.028-.086.044-.066.051c-.071.063-.123.142-.153.228L12.923.7l-.007.091.012.099.692 3.586-6.775 4.467-.12.106-.027.035-.026.04-.051.088-.02.058-.013.059-.005.063v2.357c0 .294.243.534.542.534.237 0 .442-.151.514-.362l.02-.081.008-.09.05-1.817 5.991.05-.006 3.72-.106.186-6.75 4.448-.073.068-.047.039-.029.035-.026.04-.05.088-.02.058-.013.058-.005.064v2.362c0 .294.243.534.542.534.237 0 .442-.151.514-.362l.02-.081.008-.09.05-1.817 5.991.05-.006 3.72-.106.186-6.75 4.448-.073.067-.047.04-.029.035-.026.04-.05.088-.02.058-.013.058-.005.064v2.362c0 .294.243.533.542.533.237 0 .442-.15.514-.36l.02-.082.008-.09.05-1.818 5.749.067-5.967 16.883H.792c-.3 0-.542.24-.542.534 0 .233.153.434.367.505l.083.02.092.008h36.416c.3 0 .542-.24.542-.533 0-.233-.153-.435-.367-.506l-.083-.02-.092-.008-6.75-.033-5.873-16.917 5.748.05v1.767c0 .294.243.533.542.533.237 0 .442-.15.514-.36l.02-.082.008-.09v-2.36c0-.04-.006-.08-.015-.117l-.016-.05-.07-.123-.03-.042-.085-.075-.024-.027-6.79-4.485-.095-.191.05-3.747 5.991.05v1.766c0 .294.243.534.542.534.237 0 .442-.151.514-.362l.02-.081.008-.09v-2.36c0-.04-.006-.08-.015-.117l-.016-.05-.07-.123-.03-.041-.085-.076-.024-.027-6.79-4.485-.095-.191.05-3.747 5.991.05v1.766c0 .294.243.534.542.534.237 0 .442-.151.514-.362l.02-.081.008-.09V9.391c0-.04-.006-.081-.015-.118l-.016-.05-.07-.123-.03-.041-.085-.076-.024-.027-6.818-4.535.713-3.532c.044-.213-.05-.431-.236-.55-.132-.085-.294-.108-.44-.068l-.085.032-.085.05-5.255 3.67L13.774.35zm5.258 37.198l9.46 8.135-19.015-.088 9.49-8.047h.065zm7.293-.254l.06.032 2.389 7.075-8.182-7.05 5.494.002.061-.012.178-.047zm-14.713.034l.059-.032.204.054 5.565.088-8.29 6.908 2.462-7.018zm11.977-7.713l.09.008 2.269 6.66-5.997-.074 3.638-6.594zm-9.177 0l3.593 6.668-6-.066 2.316-6.594.09-.008zm8.343-.882l.043.075-3.842 6.811-3.71-6.886h7.509zM13.63 24.55l.077.042-.05 3.075-4.614-.092 4.587-3.025zm9.49-.406l.087.032-.05 3.49-2.936-.081 2.898-3.441zm1.248.406l4.56 3.117-4.637-.05v-3.025l.077-.042zm-9.492.326l2.698 2.79-2.783-.05v-2.705l.085-.035zm6.821-.843l.038.083-2.81 3.254-3.251-3.337h6.023zm1.422-4.59l.088.033-.05 3.49-2.936-.081 2.898-3.441zm-8.243.733l2.698 2.79-2.783-.05v-2.704l.085-.036zm6.821-.842l.038.082-2.81 3.254-3.252-3.336h6.024zm1.422-4.59l.088.032-.05 3.49-2.936-.081 2.898-3.441zm-9.49.406l.078.042-.05 3.075-4.614-.092 4.587-3.025zm10.74 0l4.56 3.117-4.638-.05v-3.025l.077-.042zm-9.493.326l2.698 2.79-2.783-.05v-2.704l.085-.036zm-5.806 2.69l4.537.05-4.537-.05zm12.627-3.532l.038.082-2.81 3.254-3.252-3.336h6.024zm-6.821-3.858l2.698 2.79-2.783-.05v-2.704l.085-.036zm8.243-.732l.088.032-.05 3.49-2.936-.081 2.898-3.441zm-1.422-.11l.038.082-2.81 3.254-3.251-3.336h6.023zm-6.821-3.858l2.698 2.79-2.783-.05V6.113l.085-.036zm9.492-.326l4.56 3.117-4.637-.05V5.792l.077-.042zm-10.738 0l.077.042-.05 3.075-4.614-.092L13.63 5.75zm9.49-.406l.087.032-.05 3.49-2.936-.081 2.898-3.441zm-1.423-.11l.038.082-2.81 3.254-3.251-3.336h6.023zm1.938-3.156l.078.05-.45 2.039-2.45-.09 2.822-1.999zm-9.275 0l2.797 2.089-2.471-.04-.404-1.999.078-.05z"/>
</svg>
