<svg xmlns="http://www.w3.org/2000/svg" width="37" height="46" viewBox="0 0 37 46">
    <path fill="#FFF" d="M7.667 18.946c0 .372.3.674.67.674.369 0 .668-.302.668-.674 0-3.531 1.92-6.763 5.01-8.435.326-.176.448-.585.273-.913-.175-.328-.58-.45-.905-.275-3.526 1.907-5.716 5.595-5.716 9.623zm-5.822 3.891c-.337-1.363-.508-2.774-.508-4.194 0-3.495 1.029-6.86 2.975-9.735C6.213 6.1 8.86 3.934 11.967 2.645c.342-.142.504-.536.364-.88s-.532-.508-.873-.367c-3.35 1.39-6.202 3.725-8.25 6.75C1.109 11.248 0 14.876 0 18.643c0 1.53.184 3.05.548 4.52.09.364.46.579.81.49.359-.09.577-.455.487-.816zm21.14-12.326c3.09 1.672 5.01 4.904 5.01 8.435 0 .372.3.674.669.674.37 0 .669-.302.669-.674 0-4.028-2.19-7.716-5.716-9.623-.325-.176-.73-.053-.905.275-.175.328-.053.737.273.913zm-8.928 25.552c.106-.357-.096-.732-.45-.838-2.247-.672-4.302-1.785-6.109-3.308-.283-.239-.705-.201-.942.084-.237.286-.199.71.084.95 1.948 1.641 4.163 2.84 6.586 3.566.345.103.725-.093.831-.454zm19.91-9.353l-6.632-5.68c-.982-.85-2.3-.45-3.02.5l-2.106-1.225c.85-2.308-.613-4.893-3.04-5.31v-2.582c.214-.075.421-.174.618-.3.847-.542 1.353-1.47 1.353-2.482V1.87C21.14.839 20.307 0 19.284 0c-.897 0-1.665.645-1.827 1.534l-1.566 8.627c-.159.878.29 1.755 1.09 2.133.274.13.56.213.85.252v2.452c-1.15.2-2.145.889-2.738 1.903-.626 1.07-.698 2.319-.301 3.403l-2.223 1.293c-.17-.15-.36-.281-.567-.39-.89-.468-1.94-.445-2.81.06l-6.669 3.88c-.88.505-1.185 1.672-.68 2.556.453.79 1.402 1.127 2.233.827l8.197-2.947c.833-.3 1.363-1.13 1.287-2.018-.025-.304-.097-.595-.207-.868l2.106-1.225c.24.293.527.556.857.775l-.615 12.23c-.02.385.286.709.668.709.354 0 .65-.28.667-.64l.59-11.736c.287.065.578.099.867.099.297 0 .592-.036.88-.102l1.098 21.845H16.53l.349-6.94c.018-.372-.266-.688-.634-.707-.37-.02-.683.267-.702.639l-.352 7.008H7.387c-.37 0-.669.302-.669.674 0 .372.3.674.669.674h22.225c.37 0 .67-.302.67-.674 0-.372-.3-.674-.67-.674H21.81l-1.126-22.407c.317-.21.605-.47.856-.774l2.222 1.293c-.238 1.219.32 2.485 1.405 3.112l6.669 3.88c.876.511 2.018.218 2.536-.685.448-.783.278-1.775-.406-2.36zm-22.144-2.396L3.626 27.26c-.236.086-.498-.012-.624-.23-.141-.247-.055-.575.19-.716l6.669-3.88c.479-.278 1.034-.29 1.523-.032.49.257.797.723.844 1.277.024.28-.143.54-.405.635zm5.726-13.24c-.251-.119-.392-.394-.342-.67l1.566-8.627c.045-.249.26-.43.51-.43.287 0 .52.236.52.524v7.76c0 .556-.268 1.046-.734 1.345-.465.298-1.02.334-1.52.098zm3.206 9.19c-.733 1.253-2.341 1.672-3.585.933-1.243-.739-1.658-2.359-.925-3.612.475-.812 1.325-1.298 2.255-1.298h.012c1.93-.035 3.263 2.233 2.243 3.977zm12.459 8.133c-.144.25-.462.336-.71.192l-6.668-3.88c-1-.57-1.05-2.042-.114-2.688.229-.159.535-.146.747.036l6.631 5.68c.191.164.239.441.114.66zM18.5 18.251c-.37 0-.669.302-.669.674 0 .372.3.674.669.674.369 0 .668-.302.668-.674 0-.372-.299-.674-.668-.674zm11.002 13.666c-1.808 1.523-3.863 2.636-6.109 3.308-.354.106-.556.481-.45.838.106.36.485.558.83.454 2.422-.725 4.638-1.925 6.587-3.566.283-.24.32-.664.084-.95-.237-.285-.659-.323-.942-.084zm4.29-23.769c-2.048-3.025-4.9-5.36-8.25-6.75-.341-.141-.732.023-.873.367-.14.344.022.738.364.88 3.107 1.29 5.754 3.455 7.655 6.263 1.946 2.874 2.975 6.24 2.975 9.735 0 1.42-.171 2.831-.508 4.194-.09.361.128.727.487.817.349.088.72-.126.81-.49.364-1.47.548-2.991.548-4.521 0-3.767-1.11-7.396-3.208-10.495z"/>
</svg>
