<?xml version="1.0" encoding="UTF-8"?>
<svg width="97px" height="19px" viewBox="0 0 97 19" version="1.1" xmlns="http://www.w3.org/2000/svg" xmlns:xlink="http://www.w3.org/1999/xlink">
    <title>Group 3@1.5x</title>
    <g id="Page-1" stroke="none" stroke-width="1" fill="none" fill-rule="evenodd">
        <g id="Home---Modal" transform="translate(-250.000000, -21.000000)" fill-rule="nonzero">
            <g id="Group-3" transform="translate(250.000000, 21.000000)">
                <g id="Group" transform="translate(0.500000, 0.500000)">
                    <g id="Logo-/-Color" transform="translate(0.500000, 0.500000)">
                        <path d="M8.43705101,12.3644153 L8.43705101,9.83669355 L3.13083693,9.83669355 L3.13083693,7.30897177 L8.12140805,7.30897177 L8.12140805,4.99546371 L3.13083693,4.99546371 L3.13083693,2.52772177 L8.43705101,2.52772177 L8.43705101,0 L0,0 L0,12.3644153 L8.43705101,12.3644153 Z M12.2162356,12.3644153 L12.2162356,6.88054435 C12.2162356,5.14112903 13.3252514,3.99294355 14.9461207,3.99294355 C16.5413973,3.99294355 17.343301,4.89264113 17.343301,6.64919355 L17.343301,12.3644153 L18.4608477,12.3644153 L18.4608477,6.36643145 C18.4608477,4.21572581 17.2921157,2.98185484 15.2447019,2.98185484 C13.7773886,2.98185484 12.7622126,3.65877016 12.2759519,4.7983871 L12.1650503,4.7983871 L12.1650503,3.13608871 L11.0986889,3.13608871 L11.0986889,12.3644153 L12.2162356,12.3644153 Z M24.918732,12.5186492 C26.8467134,12.5186492 28.2628412,11.5846774 28.7149784,10.0851815 L27.58037,10.0851815 C27.187949,10.9934476 26.249551,11.516129 24.9443247,11.516129 C23.1698994,11.516129 22.0182292,10.1794355 21.9585129,8.09727823 L21.9585129,8.04586694 L28.8600036,8.04586694 L28.8600036,7.54889113 C28.8600036,4.72983871 27.3585668,2.98185484 24.9102011,2.98185484 C22.4106501,2.98185484 20.8068427,4.85836694 20.8068427,7.75453629 C20.8068427,10.6678427 22.3935884,12.5186492 24.918732,12.5186492 Z M27.6912716,7.12046371 L21.9670438,7.12046371 C22.0694145,5.21824597 23.2296157,3.97580645 24.9016703,3.97580645 C26.565194,3.97580645 27.6656789,5.21824597 27.6912716,7.12046371 Z M32.4003233,12.3644153 L32.4003233,6.60635081 C32.4003233,5.14969758 33.4581537,4.07006048 34.8828125,4.07006048 C35.2155172,4.07006048 35.6761853,4.12147177 35.8809267,4.18145161 L35.8809267,3.05897177 C35.6335309,2.99899194 35.3264188,2.98185484 35.0193068,2.98185484 C33.7993894,2.98185484 32.7671516,3.65020161 32.4600395,4.65272177 L32.3491379,4.65272177 L32.3491379,3.13608871 L31.2827766,3.13608871 L31.2827766,12.3644153 L32.4003233,12.3644153 Z M41.5283764,15.8261089 C43.9426185,15.8261089 45.5208333,14.5065524 45.5208333,12.5015121 L45.5208333,3.13608871 L44.4459411,3.13608871 L44.4459411,4.96118952 L44.3435704,4.96118952 C43.8402478,3.76159274 42.6203305,2.98185484 41.2127335,2.98185484 C38.8582076,2.98185484 37.3397091,4.86693548 37.3397091,7.63457661 C37.3397091,10.4022177 38.8496767,12.2701613 41.2127335,12.2701613 C42.6203305,12.2701613 43.746408,11.5589718 44.2923851,10.3422379 L44.4032866,10.3422379 L44.4032866,12.4158266 C44.4032866,13.906754 43.3028017,14.8407258 41.5283764,14.8407258 C40.1293103,14.8407258 39.1738506,14.2923387 38.9691092,13.4440524 L37.7833154,13.4440524 C38.0221803,14.8835685 39.4212464,15.8261089 41.5283764,15.8261089 Z M41.4345366,11.2676411 C39.6003951,11.2676411 38.4913793,9.81955645 38.4913793,7.63457661 C38.4913793,5.44102823 39.6003951,3.99294355 41.4345366,3.99294355 C43.2516164,3.99294355 44.4203484,5.45816532 44.4203484,7.65171371 C44.4203484,9.83669355 43.2772091,11.2676411 41.4345366,11.2676411 Z M49.0440912,15.6290323 C50.545528,15.6290323 51.1938757,15.0292339 52.0128412,12.8099798 L55.5872845,3.13608871 L54.3929598,3.13608871 L51.6204203,11.1391129 L51.5180496,11.1391129 L48.7369792,3.13608871 L47.5255927,3.13608871 L50.9720726,12.4243952 L50.784393,12.9984879 C50.3322557,14.2237903 49.8715876,14.6522177 49.0270295,14.6522177 C48.8905352,14.6522177 48.6516703,14.6436492 48.5237069,14.6179435 L48.5237069,15.5947581 C48.668732,15.6118952 48.907597,15.6290323 49.0440912,15.6290323 Z" id="Energy" fill="#4D4D4D"></path>
                        <path d="M62.6849856,13.6068548 C66.0461566,13.6068548 68.1447557,11.5504032 68.1447557,8.24294355 L68.1447557,6.66633065 L62.9750359,6.66633065 L62.9750359,8.61139113 L65.6452047,8.61139113 L65.6366739,8.83417339 C65.5854885,10.3251008 64.4167565,11.327621 62.7276401,11.327621 C60.6972881,11.327621 59.4176545,9.71673387 59.4176545,7.06905242 C59.4176545,4.47278226 60.6375718,2.88760081 62.6252694,2.88760081 C64.0584591,2.88760081 65.0906968,3.61592742 65.4745869,4.86693548 L68.0338542,4.86693548 C67.6755568,2.29637097 65.5343032,0.608366935 62.6252694,0.608366935 C59.0422953,0.608366935 56.7816092,3.11038306 56.7816092,7.09475806 C56.7816092,11.1391129 59.0252335,13.6068548 62.6849856,13.6068548 Z M71.6253592,2.51915323 C72.5125718,2.51915323 73.0926724,1.99647177 73.0926724,1.25957661 C73.0926724,0.514112903 72.5125718,0 71.6253592,0 C70.7296157,0 70.158046,0.514112903 70.158046,1.25957661 C70.158046,1.99647177 70.7296157,2.51915323 71.6253592,2.51915323 Z M72.8623384,13.2898185 L72.8623384,3.83870968 L70.3798491,3.83870968 L70.3798491,13.2898185 L72.8623384,13.2898185 Z M79.5164332,16.8714718 C82.3572198,16.8714718 84.1572378,15.4747984 84.1572378,13.2555444 L84.1572378,3.83870968 L81.7515266,3.83870968 L81.7515266,5.35534274 L81.5979705,5.35534274 C81.094648,4.31854839 80.0112249,3.68447581 78.7401221,3.68447581 C76.3514727,3.68447581 74.8841595,5.55241935 74.8841595,8.4828629 C74.8841595,11.327621 76.3429418,13.1527218 78.6889368,13.1527218 C80.0112249,13.1527218 81.0008082,12.6214718 81.5211925,11.6275202 L81.6747486,11.6275202 L81.6747486,13.375504 C81.6747486,14.438004 80.8984375,15.0549395 79.5676185,15.0549395 C78.4927263,15.0549395 77.7931932,14.6864919 77.6652299,14.1038306 L75.2083333,14.1038306 C75.3618894,15.766129 77.0168822,16.8714718 79.5164332,16.8714718 Z M79.5505568,11.1819556 C78.202676,11.1819556 77.4348958,10.1451613 77.4348958,8.47429435 C77.4348958,6.82056452 78.2112069,5.77520161 79.5505568,5.77520161 C80.8899066,5.77520161 81.7003412,6.82056452 81.7003412,8.4828629 C81.7003412,10.1451613 80.8984375,11.1819556 79.5505568,11.1819556 Z M90.3591954,13.4954637 C92.8246228,13.4954637 94.5052083,12.2615927 94.5052083,10.3765121 C94.5052083,8.96270161 93.6862428,8.19153226 91.8606322,7.78881048 L90.0947378,7.40322581 C89.2245869,7.20614919 88.8236351,6.9233871 88.8236351,6.46068548 C88.8236351,5.8608871 89.4805136,5.45816532 90.3677263,5.45816532 C91.2890625,5.45816532 91.8606322,5.83518145 91.9885955,6.44354839 L94.2834052,6.44354839 C94.1469109,4.63558468 92.7393139,3.63306452 90.3506645,3.63306452 C88.0046695,3.63306452 86.4349856,4.82409274 86.4349856,6.61491935 C86.4349856,8.07157258 87.3221983,8.94556452 89.1478089,9.34828629 L90.8539871,9.73387097 C91.6814835,9.91381048 92.0397809,10.1965726 92.0397809,10.6592742 C92.0397809,11.2676411 91.3743714,11.6703629 90.4103807,11.6703629 C89.4207974,11.6703629 88.8151042,11.3019153 88.6274246,10.6592742 L86.2046516,10.6592742 C86.3752694,12.4758065 87.8767062,13.4954637 90.3591954,13.4954637 Z" id="Gigs" fill="#FFD316"></path>
                    </g>
                </g>
            </g>
        </g>
    </g>
</svg>